<svg xmlns="http://www.w3.org/2000/svg" id="canvas" viewBox="294.308 564.516 1233.590 229.034"><path d="M 398.74,579.38 C 398.62 578.62, 398.30 578.01, 397.21 577.22 C 396.13 576.43, 395.24 575.83, 393.33 575.42 C 391.41 575.01, 390.23 574.75, 387.64 575.16 C 385.05 575.57, 383.65 575.94, 380.36 577.46 C 377.08 578.98, 375.47 579.92, 371.23 582.76 C 366.99 585.60, 364.30 587.31, 359.17 591.67 C 354.03 596.03, 351.24 598.67, 345.53 604.54 C 339.82 610.42, 336.36 613.95, 330.61 621.06 C 324.85 628.17, 321.76 632.28, 316.77 640.11 C 311.79 647.95, 309.25 652.42, 305.69 660.23 C 302.13 668.05, 300.60 672.19, 298.97 679.19 C 297.34 686.18, 297.03 689.63, 297.52 695.22 C 298.02 700.82, 298.80 703.39, 301.44 707.17 C 304.09 710.95, 306.21 712.43, 310.76 714.13 C 315.31 715.83, 318.36 715.99, 324.21 715.69 C 330.06 715.39, 333.40 714.63, 340.01 712.62 C 346.61 710.60, 350.32 708.93, 357.25 705.61 C 364.18 702.29, 367.99 700.05, 374.67 696.03 C 381.35 692.01, 384.76 689.50, 390.65 685.50 C 396.54 681.51, 399.42 679.34, 404.13 676.06 C 408.84 672.78, 411.15 671.33, 414.18 669.10 C 417.21 666.87, 418.29 665.98, 419.28 664.91 C 420.27 663.84, 419.83 663.64, 419.14 663.75 C 418.45 663.85, 417.38 664.16, 415.84 665.45 C 414.30 666.74, 413.17 667.75, 411.45 670.20 C 409.72 672.64, 408.89 674.60, 407.23 677.67 C 405.57 680.74, 404.56 682.52, 403.15 685.54 C 401.74 688.55, 400.83 690.00, 400.18 692.74 C 399.52 695.48, 399.41 697.01, 399.89 699.25 C 400.36 701.49, 401.04 702.59, 402.55 703.96 C 404.07 705.33, 405.22 705.76, 407.46 706.11 C 409.70 706.46, 411.13 706.43, 413.77 705.70 C 416.41 704.98, 418.04 704.26, 420.66 702.48 C 423.27 700.69, 424.60 699.35, 426.84 696.77 C 429.08 694.20, 430.24 692.70, 431.85 689.61 C 433.45 686.52, 434.25 684.72, 434.85 681.31 C 435.45 677.90, 435.54 675.70, 434.85 672.55 C 434.17 669.40, 433.31 667.95, 431.42 665.55 C 429.52 663.14, 428.03 662.09, 425.39 660.53 C 422.75 658.97, 421.03 658.42, 418.22 657.73 C 415.41 657.05, 413.79 657.05, 411.34 657.11 C 408.88 657.18, 407.59 657.39, 405.95 658.06 C 404.32 658.73, 403.58 659.33, 403.16 660.47 C 402.74 661.62, 402.87 662.62, 403.85 663.78 C 404.83 664.94, 405.79 665.62, 408.07 666.29 C 410.34 666.96, 411.99 666.96, 415.24 667.13 C 418.49 667.30, 420.39 667.29, 424.32 667.14 C 428.25 666.99, 430.47 666.85, 434.87 666.36 C 439.28 665.87, 441.77 665.41, 446.34 664.70 C 450.91 663.99, 453.42 663.47, 457.72 662.83 C 462.02 662.18, 464.51 661.74, 467.85 661.48 C 471.19 661.23, 472.55 661.14, 474.44 661.53 C 476.33 661.92, 476.82 662.23, 477.30 663.43 C 477.79 664.64, 477.54 665.49, 476.89 667.55 C 476.24 669.61, 475.49 671.05, 474.05 673.71 C 472.61 676.37, 471.58 678.04, 469.71 680.84 C 467.84 683.65, 466.48 685.26, 464.70 687.73 C 462.92 690.19, 461.73 691.40, 460.80 693.15 C 459.87 694.90, 459.85 695.80, 460.06 696.47 C 460.27 697.14, 460.82 697.15, 461.85 696.51 C 462.88 695.87, 463.76 695.12, 465.21 693.26 C 466.66 691.41, 467.45 689.78, 469.09 687.23 C 470.72 684.67, 471.57 683.00, 473.40 680.48 C 475.22 677.95, 476.32 676.72, 478.21 674.60 C 480.09 672.48, 481.21 671.39, 482.83 669.89 C 484.44 668.39, 485.04 667.80, 486.29 667.11 C 487.55 666.42, 487.87 666.35, 489.09 666.44 C 490.32 666.53, 490.87 666.93, 492.42 667.56 C 493.97 668.20, 494.73 668.82, 496.83 669.61 C 498.93 670.39, 500.17 670.97, 502.92 671.49 C 505.66 672.02, 507.31 672.28, 510.55 672.24 C 513.79 672.21, 515.58 671.96, 519.11 671.34 C 522.64 670.71, 524.54 670.25, 528.20 669.13 C 531.85 668.00, 533.86 667.34, 537.39 665.71 C 540.91 664.08, 542.79 662.97, 545.82 660.98 C 548.86 659.00, 550.50 657.95, 552.56 655.79 C 554.61 653.63, 555.42 652.33, 556.12 650.18 C 556.82 648.03, 556.88 646.73, 556.05 645.05 C 555.22 643.36, 554.21 642.35, 551.96 641.77 C 549.71 641.19, 547.84 641.18, 544.78 642.13 C 541.72 643.09, 540.09 644.28, 536.64 646.53 C 533.20 648.77, 531.12 650.30, 527.54 653.37 C 523.96 656.45, 521.82 658.31, 518.77 661.90 C 515.71 665.48, 514.05 667.68, 512.28 671.31 C 510.50 674.94, 509.86 676.89, 509.87 680.04 C 509.89 683.19, 510.54 684.84, 512.36 687.05 C 514.17 689.25, 515.79 690.26, 518.93 691.08 C 522.07 691.89, 524.16 691.62, 528.05 691.13 C 531.95 690.64, 534.03 690.12, 538.39 688.63 C 542.75 687.14, 545.18 686.00, 549.86 683.68 C 554.54 681.35, 557.14 679.83, 561.79 676.99 C 566.43 674.14, 568.86 672.43, 573.07 669.45 C 577.28 666.47, 579.42 664.78, 582.85 662.10 C 586.28 659.42, 588.00 658.23, 590.21 656.07 C 592.42 653.92, 593.27 652.70, 593.91 651.33 C 594.56 649.96, 594.25 649.29, 593.44 649.22 C 592.64 649.15, 591.35 649.57, 589.89 650.97 C 588.43 652.36, 587.31 653.74, 586.12 656.18 C 584.94 658.63, 584.40 660.53, 583.97 663.20 C 583.55 665.88, 583.41 667.33, 584.01 669.56 C 584.61 671.79, 585.25 673.02, 586.97 674.35 C 588.70 675.67, 589.94 676.23, 592.62 676.18 C 595.30 676.13, 596.99 675.54, 600.38 674.11 C 603.78 672.69, 605.56 671.38, 609.58 669.06 C 613.60 666.75, 616.24 665.27, 620.50 662.53 C 624.75 659.79, 627.40 657.91, 630.85 655.37 C 634.31 652.83, 636.14 651.47, 637.77 649.84 C 639.40 648.20, 639.49 647.07, 639.00 647.19 C 638.51 647.30, 637.33 647.80, 635.32 650.41 C 633.32 653.01, 631.99 655.40, 628.98 660.22 C 625.97 665.03, 624.28 668.14, 620.28 674.47 C 616.28 680.80, 613.84 684.54, 608.99 691.88 C 604.13 699.21, 601.40 703.30, 596.00 711.14 C 590.61 718.97, 587.72 723.30, 582.02 731.07 C 576.32 738.83, 573.29 742.91, 567.51 749.96 C 561.73 757.01, 558.64 760.59, 553.12 766.31 C 547.59 772.04, 544.69 774.70, 539.88 778.60 C 535.08 782.49, 532.61 783.91, 529.07 785.78 C 525.53 787.66, 524.02 787.84, 522.16 787.96 C 520.30 788.08, 520.02 788.00, 519.78 786.39 C 519.54 784.78, 519.65 783.25, 520.96 779.92 C 522.27 776.60, 523.23 774.35, 526.34 769.75 C 529.44 765.15, 532.22 761.76, 536.48 756.92 C 540.75 752.08, 543.67 749.41, 547.68 745.55 C 551.68 741.70, 554.98 739.51, 556.50 737.64 C 558.02 735.77, 557.36 734.97, 555.27 736.22 C 553.19 737.46, 550.22 740.06, 546.08 743.86 C 541.94 747.65, 539.00 750.36, 534.57 755.21 C 530.14 760.05, 527.30 763.38, 523.94 768.09 C 520.59 772.79, 519.12 774.93, 517.77 778.73 C 516.42 782.54, 516.31 784.76, 517.19 787.12 C 518.06 789.48, 519.52 790.35, 522.13 790.52 C 524.75 790.70, 526.46 790.08, 530.26 787.99 C 534.06 785.90, 536.32 784.19, 541.12 780.08 C 545.93 775.97, 548.78 773.27, 554.29 767.43 C 559.79 761.59, 562.87 757.99, 568.65 750.89 C 574.43 743.79, 577.46 739.70, 583.18 731.92 C 588.90 724.14, 591.80 719.81, 597.24 711.99 C 602.68 704.17, 605.43 700.10, 610.40 692.82 C 615.36 685.55, 617.86 681.83, 622.06 675.63 C 626.25 669.43, 628.12 666.45, 631.38 661.81 C 634.64 657.17, 636.66 655.35, 638.35 652.43 C 640.04 649.50, 640.34 648.24, 639.84 647.18 C 639.35 646.12, 638.08 646.07, 635.87 647.14 C 633.65 648.22, 632.20 650.03, 628.78 652.57 C 625.36 655.11, 622.95 657.17, 618.77 659.86 C 614.60 662.55, 611.90 663.95, 607.91 666.02 C 603.92 668.09, 601.95 669.04, 598.83 670.21 C 595.71 671.39, 594.28 671.60, 592.31 671.89 C 590.33 672.19, 589.81 672.25, 588.93 671.67 C 588.06 671.09, 587.86 670.40, 587.93 668.99 C 588.00 667.58, 588.45 666.66, 589.30 664.64 C 590.15 662.62, 591.23 661.15, 592.16 658.88 C 593.08 656.62, 593.52 655.15, 593.94 653.31 C 594.35 651.48, 594.60 650.46, 594.22 649.70 C 593.83 648.93, 593.35 648.80, 592.01 649.51 C 590.67 650.22, 589.74 651.20, 587.53 653.25 C 585.31 655.30, 584.13 656.97, 580.93 659.77 C 577.72 662.57, 575.60 664.27, 571.49 667.26 C 567.39 670.24, 564.97 671.94, 560.40 674.72 C 555.83 677.49, 553.22 678.96, 548.62 681.13 C 544.03 683.30, 541.60 684.31, 537.41 685.57 C 533.22 686.82, 531.16 687.09, 527.66 687.39 C 524.15 687.69, 522.41 687.57, 519.88 687.06 C 517.34 686.54, 516.23 686.22, 514.97 684.82 C 513.71 683.42, 513.51 682.48, 513.58 680.08 C 513.65 677.67, 513.80 676.00, 515.32 672.78 C 516.85 669.56, 518.34 667.35, 521.21 663.98 C 524.08 660.61, 526.19 658.76, 529.68 655.95 C 533.18 653.13, 535.36 651.73, 538.68 649.90 C 542.00 648.07, 543.72 647.65, 546.28 646.79 C 548.84 645.93, 550.01 645.73, 551.48 645.61 C 552.95 645.50, 553.34 645.60, 553.62 646.22 C 553.89 646.84, 553.70 647.42, 552.86 648.72 C 552.01 650.01, 551.24 650.86, 549.39 652.67 C 547.54 654.48, 546.34 655.82, 543.62 657.75 C 540.91 659.69, 539.12 660.80, 535.82 662.35 C 532.52 663.90, 530.59 664.51, 527.12 665.50 C 523.66 666.49, 521.79 666.87, 518.49 667.29 C 515.20 667.72, 513.56 667.78, 510.65 667.62 C 507.74 667.46, 506.38 667.05, 503.94 666.51 C 501.50 665.97, 500.49 665.56, 498.44 664.92 C 496.40 664.28, 495.60 663.73, 493.72 663.32 C 491.85 662.90, 490.87 662.73, 489.08 662.83 C 487.29 662.93, 486.58 663.09, 484.77 663.82 C 482.95 664.56, 482.01 664.98, 480.00 666.51 C 478.00 668.03, 476.82 669.23, 474.75 671.45 C 472.69 673.67, 471.74 675.09, 469.67 677.60 C 467.61 680.11, 466.31 681.47, 464.42 684.00 C 462.54 686.54, 461.30 688.01, 460.26 690.27 C 459.22 692.54, 459.11 693.90, 459.22 695.33 C 459.32 696.75, 459.81 697.30, 460.77 697.38 C 461.74 697.46, 462.49 697.09, 464.04 695.73 C 465.59 694.36, 466.64 693.03, 468.52 690.55 C 470.39 688.07, 471.49 686.25, 473.44 683.33 C 475.38 680.40, 476.70 678.91, 478.24 675.93 C 479.79 672.95, 480.80 671.22, 481.16 668.44 C 481.52 665.66, 481.19 664.09, 480.03 662.05 C 478.87 660.01, 477.85 659.08, 475.36 658.24 C 472.87 657.41, 471.20 657.59, 467.57 657.87 C 463.94 658.15, 461.55 658.90, 457.21 659.65 C 452.87 660.40, 450.40 660.94, 445.87 661.62 C 441.35 662.29, 438.87 662.72, 434.57 663.04 C 430.26 663.36, 428.11 663.42, 424.34 663.22 C 420.58 663.02, 418.78 662.46, 415.73 662.02 C 412.68 661.58, 411.17 661.23, 409.10 661.04 C 407.04 660.85, 406.29 660.99, 405.39 661.08 C 404.50 661.17, 404.35 661.33, 404.61 661.49 C 404.88 661.66, 405.39 661.83, 406.73 661.90 C 408.06 661.97, 409.22 661.73, 411.29 661.84 C 413.37 661.95, 414.74 661.90, 417.11 662.44 C 419.47 662.99, 420.92 663.40, 423.12 664.56 C 425.32 665.72, 426.59 666.46, 428.10 668.24 C 429.60 670.02, 430.12 670.99, 430.64 673.45 C 431.16 675.92, 431.20 677.74, 430.69 680.58 C 430.19 683.41, 429.56 685.00, 428.13 687.64 C 426.69 690.27, 425.57 691.62, 423.52 693.74 C 421.47 695.87, 420.12 696.84, 417.87 698.27 C 415.62 699.70, 414.29 700.17, 412.26 700.91 C 410.24 701.64, 409.24 701.85, 407.74 701.95 C 406.24 702.04, 405.59 702.03, 404.75 701.39 C 403.91 700.74, 403.59 700.22, 403.53 698.73 C 403.46 697.24, 403.71 696.17, 404.44 693.93 C 405.18 691.68, 405.82 690.26, 407.21 687.50 C 408.59 684.73, 409.53 682.90, 411.35 680.11 C 413.17 677.32, 414.68 675.94, 416.30 673.54 C 417.91 671.13, 418.64 669.96, 419.42 668.09 C 420.21 666.21, 420.50 665.18, 420.24 664.17 C 419.98 663.16, 419.68 662.52, 418.11 663.03 C 416.55 663.54, 415.48 664.46, 412.43 666.71 C 409.37 668.96, 407.40 670.83, 402.83 674.27 C 398.26 677.72, 395.39 679.89, 389.57 683.93 C 383.75 687.97, 380.35 690.47, 373.73 694.46 C 367.10 698.45, 363.30 700.66, 356.44 703.89 C 349.57 707.12, 345.87 708.71, 339.40 710.60 C 332.94 712.50, 329.66 713.10, 324.10 713.35 C 318.53 713.60, 315.76 713.35, 311.60 711.85 C 307.44 710.35, 305.72 709.21, 303.31 705.84 C 300.90 702.48, 300.06 700.29, 299.53 695.04 C 299.00 689.78, 299.15 686.40, 300.67 679.57 C 302.19 672.74, 303.65 668.61, 307.13 660.88 C 310.60 653.15, 313.12 648.70, 318.07 640.94 C 323.01 633.18, 326.10 629.10, 331.85 622.08 C 337.61 615.06, 341.09 611.57, 346.84 605.83 C 352.58 600.10, 355.40 597.52, 360.59 593.41 C 365.78 589.29, 368.53 587.71, 372.78 585.26 C 377.04 582.82, 378.77 582.24, 381.87 581.20 C 384.96 580.16, 386.14 580.23, 388.25 580.06 C 390.36 579.88, 390.96 580.13, 392.41 580.34 C 393.87 580.55, 394.45 580.98, 395.53 581.12 C 396.61 581.26, 397.19 581.40, 397.84 581.05 C 398.48 580.70, 398.87 580.15, 398.74 579.38" style="stroke: black; fill: black;"/><path d="M 759.04,602.47 C 758.45 603.14, 758.38 603.71, 757.78 605.90 C 757.18 608.09, 756.96 609.56, 756.02 613.41 C 755.08 617.27, 754.73 620.02, 753.08 625.18 C 751.42 630.35, 750.10 633.53, 747.74 639.26 C 745.38 645.00, 743.91 648.29, 741.27 653.86 C 738.64 659.42, 737.18 662.30, 734.56 667.07 C 731.93 671.85, 730.36 674.25, 728.15 677.75 C 725.93 681.24, 724.72 682.66, 723.47 684.56 C 722.23 686.46, 722.10 687.34, 721.93 687.23 C 721.77 687.13, 722.26 686.56, 722.65 684.04 C 723.04 681.51, 722.91 679.28, 723.87 674.59 C 724.83 669.90, 725.54 666.76, 727.45 660.61 C 729.36 654.45, 730.47 650.69, 733.43 643.81 C 736.38 636.92, 738.22 633.08, 742.23 626.18 C 746.24 619.28, 748.71 615.64, 753.46 609.31 C 758.20 602.99, 760.73 599.78, 765.94 594.56 C 771.15 589.34, 774.07 587.05, 779.51 583.19 C 784.95 579.33, 787.98 577.72, 793.13 575.27 C 798.29 572.81, 800.85 571.80, 805.30 570.91 C 809.74 570.02, 812.03 570.24, 815.34 570.81 C 818.65 571.39, 820.01 572.15, 821.85 573.80 C 823.69 575.45, 824.20 576.36, 824.54 579.05 C 824.88 581.73, 824.98 583.49, 823.54 587.22 C 822.11 590.96, 820.62 593.31, 817.36 597.71 C 814.10 602.10, 811.85 604.67, 807.25 609.19 C 802.65 613.71, 799.75 616.17, 794.36 620.31 C 788.96 624.46, 785.81 626.45, 780.26 629.93 C 774.72 633.41, 771.64 635.04, 766.64 637.73 C 761.64 640.42, 759.12 641.63, 755.26 643.39 C 751.41 645.16, 749.72 645.28, 747.36 646.57 C 745.00 647.86, 744.22 648.39, 743.45 649.85 C 742.68 651.30, 742.78 652.17, 743.51 653.83 C 744.23 655.48, 745.17 656.39, 747.06 658.13 C 748.95 659.88, 750.31 660.51, 752.95 662.53 C 755.59 664.55, 757.23 665.74, 760.26 668.24 C 763.28 670.75, 764.90 672.30, 768.08 675.04 C 771.27 677.78, 772.89 679.30, 776.19 681.96 C 779.49 684.63, 781.16 686.07, 784.59 688.37 C 788.02 690.67, 789.86 691.86, 793.36 693.47 C 796.85 695.07, 798.50 695.60, 802.06 696.39 C 805.62 697.17, 807.42 697.46, 811.15 697.41 C 814.88 697.35, 816.80 697.21, 820.72 696.12 C 824.64 695.02, 826.62 694.12, 830.74 691.94 C 834.85 689.76, 837.04 688.27, 841.30 685.22 C 845.56 682.17, 847.77 680.23, 852.04 676.70 C 856.31 673.17, 858.66 671.04, 862.63 667.58 C 866.60 664.11, 868.70 662.25, 871.89 659.38 C 875.09 656.52, 876.73 655.48, 878.61 653.24 C 880.49 651.00, 880.97 649.89, 881.29 648.18 C 881.60 646.46, 881.25 645.67, 880.20 644.66 C 879.16 643.65, 878.18 643.17, 876.08 643.13 C 873.98 643.10, 872.59 643.33, 869.70 644.49 C 866.81 645.66, 865.11 646.79, 861.62 648.96 C 858.12 651.14, 856.17 652.33, 852.24 655.36 C 848.31 658.38, 845.86 660.40, 841.95 664.09 C 838.05 667.78, 835.96 669.99, 832.73 673.80 C 829.51 677.60, 827.96 679.69, 825.82 683.12 C 823.69 686.56, 822.66 688.28, 822.06 690.99 C 821.47 693.69, 821.84 694.93, 822.86 696.65 C 823.88 698.36, 824.92 699.07, 827.16 699.57 C 829.40 700.07, 831.09 700.03, 834.07 699.14 C 837.06 698.25, 838.72 697.15, 842.09 695.11 C 845.46 693.06, 847.32 691.69, 850.92 688.92 C 854.52 686.16, 856.53 684.42, 860.09 681.28 C 863.65 678.14, 865.76 676.18, 868.73 673.22 C 871.69 670.27, 873.44 668.68, 874.92 666.52 C 876.39 664.36, 876.39 663.12, 876.11 662.44 C 875.82 661.75, 874.90 661.89, 873.49 663.11 C 872.07 664.33, 870.76 665.77, 869.04 668.52 C 867.31 671.27, 866.15 673.46, 864.87 676.85 C 863.59 680.23, 862.74 682.29, 862.65 685.45 C 862.56 688.61, 862.93 690.33, 864.42 692.65 C 865.91 694.96, 867.06 696.32, 870.10 697.04 C 873.14 697.77, 875.30 697.46, 879.62 696.26 C 883.95 695.06, 886.51 693.80, 891.73 691.04 C 896.95 688.29, 899.96 686.47, 905.71 682.47 C 911.46 678.47, 914.77 675.99, 920.49 671.05 C 926.21 666.12, 929.17 663.19, 934.29 657.78 C 939.41 652.36, 941.92 649.39, 946.10 643.96 C 950.28 638.54, 952.22 635.63, 955.18 630.64 C 958.14 625.65, 959.25 623.22, 960.89 619.02 C 962.53 614.83, 963.09 612.88, 963.39 609.66 C 963.68 606.45, 963.40 605.00, 962.36 602.93 C 961.32 600.86, 960.28 599.97, 958.19 599.32 C 956.09 598.66, 954.56 598.48, 951.88 599.64 C 949.21 600.79, 947.81 602.10, 944.82 605.10 C 941.83 608.11, 940.10 610.21, 936.92 614.67 C 933.73 619.13, 932.02 621.96, 928.89 627.41 C 925.76 632.87, 923.95 636.10, 921.26 641.93 C 918.57 647.76, 917.15 650.90, 915.42 656.58 C 913.70 662.26, 913.12 665.32, 912.62 670.32 C 912.12 675.31, 912.02 677.61, 912.90 681.56 C 913.78 685.50, 914.65 687.44, 917.00 690.06 C 919.35 692.68, 921.18 693.64, 924.64 694.67 C 928.10 695.70, 930.38 695.68, 934.32 695.22 C 938.26 694.75, 940.44 694.04, 944.35 692.35 C 948.26 690.65, 950.46 689.30, 953.87 686.76 C 957.28 684.21, 958.91 682.53, 961.39 679.61 C 963.88 676.70, 965.02 674.98, 966.30 672.18 C 967.59 669.39, 967.68 667.83, 967.81 665.63 C 967.95 663.43, 967.62 662.55, 966.97 661.18 C 966.31 659.81, 965.51 659.09, 964.54 658.78 C 963.57 658.47, 962.50 658.89, 962.12 659.62 C 961.75 660.34, 961.68 661.47, 962.67 662.39 C 963.66 663.31, 964.59 663.90, 967.07 664.21 C 969.55 664.51, 971.31 664.31, 975.06 663.91 C 978.81 663.52, 981.03 663.15, 985.82 662.23 C 990.60 661.32, 993.47 660.64, 998.98 659.33 C 1004.50 658.02, 1007.68 657.13, 1013.37 655.69 C 1019.06 654.25, 1022.09 653.35, 1027.43 652.14 C 1032.78 650.93, 1035.60 650.36, 1040.08 649.64 C 1044.56 648.92, 1046.86 648.98, 1049.84 648.53 C 1052.82 648.07, 1054.13 647.80, 1054.98 647.37 C 1055.82 646.94, 1055.57 646.25, 1054.06 646.38 C 1052.55 646.51, 1050.86 646.62, 1047.42 648.02 C 1043.98 649.42, 1041.47 650.76, 1036.86 653.39 C 1032.24 656.01, 1029.37 657.92, 1024.36 661.16 C 1019.35 664.40, 1016.31 666.30, 1011.81 669.58 C 1007.31 672.85, 1005.00 674.60, 1001.87 677.52 C 998.74 680.44, 997.32 681.85, 996.15 684.19 C 994.99 686.53, 995.12 687.83, 996.05 689.22 C 996.98 690.60, 998.43 691.28, 1000.80 691.10 C 1003.17 690.93, 1004.66 690.09, 1007.90 688.34 C 1011.15 686.59, 1013.08 685.03, 1017.03 682.35 C 1020.99 679.67, 1023.43 677.95, 1027.67 674.96 C 1031.92 671.96, 1034.31 670.22, 1038.26 667.38 C 1042.22 664.54, 1044.70 662.93, 1047.46 660.74 C 1050.22 658.55, 1051.38 657.46, 1052.07 656.45 C 1052.75 655.44, 1052.01 655.07, 1050.88 655.69 C 1049.75 656.32, 1048.38 657.28, 1046.43 659.60 C 1044.48 661.91, 1043.07 664.01, 1041.14 667.27 C 1039.21 670.53, 1037.94 672.63, 1036.77 675.90 C 1035.60 679.17, 1035.00 680.95, 1035.28 683.61 C 1035.56 686.27, 1036.19 687.70, 1038.19 689.21 C 1040.19 690.72, 1041.83 691.25, 1045.29 691.16 C 1048.75 691.07, 1050.88 690.22, 1055.48 688.78 C 1060.09 687.33, 1062.83 686.21, 1068.33 683.93 C 1073.83 681.66, 1077.08 680.10, 1082.98 677.40 C 1088.88 674.71, 1092.22 673.12, 1097.83 670.46 C 1103.44 667.80, 1106.32 666.23, 1111.04 664.09 C 1115.77 661.95, 1117.87 661.08, 1121.45 659.76 C 1125.02 658.44, 1126.52 658.14, 1128.93 657.49 C 1131.34 656.83, 1132.10 656.50, 1133.51 656.49 C 1134.92 656.49, 1135.19 656.79, 1136.00 657.45 C 1136.81 658.11, 1136.92 658.77, 1137.56 659.82 C 1138.20 660.86, 1138.59 661.52, 1139.21 662.67 C 1139.84 663.83, 1140.12 664.35, 1140.67 665.59 C 1141.23 666.83, 1141.44 667.68, 1142.00 668.89 C 1142.56 670.09, 1143.05 670.71, 1143.47 671.60 C 1143.89 672.49, 1144.02 672.73, 1144.12 673.33 C 1144.21 673.93, 1144.34 674.18, 1143.92 674.61 C 1143.50 675.05, 1143.19 674.99, 1142.03 675.49 C 1140.88 676.00, 1140.00 676.28, 1138.15 677.12 C 1136.30 677.95, 1135.07 678.47, 1132.77 679.68 C 1130.48 680.88, 1129.32 681.68, 1126.68 683.15 C 1124.05 684.61, 1122.55 685.46, 1119.62 687.00 C 1116.69 688.53, 1114.86 689.29, 1112.04 690.84 C 1109.22 692.38, 1107.72 693.06, 1105.53 694.73 C 1103.35 696.40, 1102.16 697.30, 1101.11 699.20 C 1100.07 701.11, 1099.85 702.24, 1100.29 704.25 C 1100.72 706.25, 1101.37 707.49, 1103.30 709.22 C 1105.24 710.96, 1106.94 711.80, 1109.95 712.92 C 1112.97 714.03, 1114.81 714.41, 1118.39 714.79 C 1121.96 715.17, 1123.92 715.08, 1127.82 714.84 C 1131.72 714.60, 1133.87 714.28, 1137.89 713.58 C 1141.92 712.88, 1144.03 712.45, 1147.95 711.35 C 1151.87 710.26, 1153.91 709.56, 1157.50 708.12 C 1161.09 706.67, 1162.77 705.93, 1165.90 704.13 C 1169.03 702.32, 1170.50 701.13, 1173.16 699.09 C 1175.81 697.05, 1177.25 695.83, 1179.19 693.92 C 1181.12 692.01, 1182.01 690.82, 1182.82 689.53 C 1183.64 688.24, 1183.58 687.57, 1183.25 687.48 C 1182.91 687.40, 1182.21 687.80, 1181.17 689.10 C 1180.12 690.40, 1179.19 691.66, 1178.03 694.00 C 1176.87 696.33, 1176.11 698.04, 1175.39 700.78 C 1174.66 703.51, 1174.31 705.11, 1174.42 707.68 C 1174.52 710.26, 1174.75 711.67, 1175.92 713.66 C 1177.09 715.65, 1178.06 716.55, 1180.26 717.63 C 1182.47 718.71, 1183.92 719.18, 1186.92 719.05 C 1189.93 718.93, 1191.71 718.28, 1195.29 717.00 C 1198.86 715.71, 1200.90 714.70, 1204.80 712.64 C 1208.70 710.58, 1210.71 709.29, 1214.78 706.68 C 1218.84 704.07, 1221.21 702.40, 1225.13 699.61 C 1229.05 696.82, 1231.24 695.10, 1234.39 692.74 C 1237.54 690.38, 1239.22 689.24, 1240.88 687.80 C 1242.54 686.36, 1242.75 685.62, 1242.69 685.53 C 1242.63 685.44, 1241.74 685.82, 1240.59 687.36 C 1239.45 688.90, 1238.37 690.49, 1236.97 693.21 C 1235.56 695.92, 1234.68 697.96, 1233.56 700.94 C 1232.43 703.91, 1231.71 705.57, 1231.33 708.09 C 1230.95 710.61, 1230.93 711.84, 1231.67 713.53 C 1232.42 715.23, 1233.10 716.09, 1235.05 716.54 C 1237.00 716.99, 1238.43 716.91, 1241.42 715.79 C 1244.40 714.67, 1246.00 713.29, 1249.97 710.94 C 1253.94 708.60, 1256.47 706.95, 1261.27 704.04 C 1266.06 701.14, 1269.07 699.19, 1273.95 696.43 C 1278.82 693.68, 1281.69 692.09, 1285.64 690.26 C 1289.60 688.43, 1291.52 687.99, 1293.74 687.28 C 1295.96 686.57, 1296.38 686.29, 1296.74 686.70 C 1297.10 687.11, 1296.49 687.60, 1295.54 689.33 C 1294.60 691.07, 1293.41 692.64, 1292.00 695.38 C 1290.59 698.12, 1289.65 699.99, 1288.50 703.03 C 1287.35 706.07, 1286.49 707.79, 1286.25 710.57 C 1286.01 713.35, 1286.15 714.94, 1287.31 716.93 C 1288.46 718.92, 1289.48 719.85, 1292.02 720.51 C 1294.56 721.17, 1296.34 721.01, 1300.01 720.23 C 1303.69 719.46, 1305.86 718.61, 1310.40 716.65 C 1314.95 714.69, 1317.57 713.19, 1322.74 710.41 C 1327.91 707.63, 1330.86 705.86, 1336.25 702.74 C 1341.63 699.63, 1344.52 697.73, 1349.67 694.83 C 1354.81 691.94, 1357.55 690.41, 1361.98 688.28 C 1366.41 686.15, 1368.67 685.29, 1371.82 684.19 C 1374.97 683.09, 1376.27 682.89, 1377.72 682.77 C 1379.17 682.64, 1379.24 682.71, 1379.08 683.55 C 1378.91 684.39, 1378.08 684.99, 1376.88 686.95 C 1375.67 688.91, 1374.88 690.52, 1373.06 693.35 C 1371.24 696.19, 1370.15 697.91, 1367.77 701.13 C 1365.38 704.35, 1363.92 706.49, 1361.14 709.44 C 1358.35 712.39, 1356.46 713.87, 1353.86 715.87 C 1351.26 717.88, 1349.94 718.63, 1348.15 719.46 C 1346.36 720.29, 1345.62 720.27, 1344.92 720.02 C 1344.21 719.76, 1344.31 719.36, 1344.61 718.19 C 1344.92 717.03, 1345.31 716.04, 1346.45 714.19 C 1347.58 712.35, 1348.23 711.36, 1350.29 708.96 C 1352.35 706.56, 1353.64 704.98, 1356.75 702.18 C 1359.87 699.38, 1361.86 697.99, 1365.87 694.96 C 1369.89 691.93, 1372.21 690.28, 1376.82 687.02 C 1381.43 683.77, 1384.06 682.05, 1388.94 678.69 C 1393.81 675.33, 1396.43 673.69, 1401.20 670.22 C 1405.98 666.76, 1408.32 664.94, 1412.82 661.36 C 1417.31 657.79, 1419.49 655.95, 1423.69 652.36 C 1427.88 648.76, 1430.00 646.98, 1433.80 643.38 C 1437.59 639.78, 1439.39 637.83, 1442.65 634.36 C 1445.90 630.90, 1447.65 629.16, 1450.07 626.07 C 1452.49 622.98, 1453.91 621.28, 1454.74 618.91 C 1455.57 616.55, 1455.00 615.37, 1454.22 614.26 C 1453.44 613.15, 1452.57 612.97, 1450.84 613.36 C 1449.11 613.74, 1447.75 614.15, 1445.58 616.18 C 1443.41 618.22, 1442.27 620.11, 1439.99 623.54 C 1437.72 626.98, 1436.58 629.14, 1434.20 633.36 C 1431.82 637.58, 1430.47 640.01, 1428.09 644.64 C 1425.71 649.28, 1424.33 651.77, 1422.30 656.53 C 1420.27 661.28, 1419.47 664.04, 1417.94 668.41 C 1416.41 672.78, 1415.62 674.89, 1414.64 678.40 C 1413.66 681.91, 1413.07 683.48, 1413.06 685.95 C 1413.05 688.42, 1413.46 689.54, 1414.58 690.75 C 1415.70 691.96, 1416.64 692.14, 1418.66 691.99 C 1420.68 691.83, 1422.09 691.39, 1424.69 689.98 C 1427.29 688.57, 1428.69 687.08, 1431.67 684.94 C 1434.66 682.79, 1436.37 681.42, 1439.60 679.25 C 1442.83 677.08, 1444.77 675.91, 1447.84 674.10 C 1450.90 672.29, 1452.52 671.55, 1454.93 670.21 C 1457.34 668.86, 1458.42 668.23, 1459.87 667.36 C 1461.33 666.49, 1461.89 666.06, 1462.22 665.86 C 1462.56 665.66, 1462.28 665.59, 1461.54 666.36 C 1460.80 667.12, 1459.99 667.77, 1458.53 669.66 C 1457.08 671.56, 1456.26 673.10, 1454.27 675.84 C 1452.29 678.57, 1450.86 680.38, 1448.61 683.33 C 1446.37 686.28, 1444.76 687.88, 1443.03 690.59 C 1441.31 693.30, 1440.47 694.63, 1439.98 696.86 C 1439.49 699.10, 1439.58 700.17, 1440.57 701.75 C 1441.55 703.33, 1442.58 704.12, 1444.91 704.74 C 1447.24 705.37, 1448.94 705.35, 1452.21 704.87 C 1455.48 704.38, 1457.38 703.68, 1461.27 702.32 C 1465.15 700.97, 1467.34 700.00, 1471.64 698.09 C 1475.93 696.18, 1478.31 695.01, 1482.75 692.77 C 1487.19 690.52, 1489.63 689.03, 1493.83 686.85 C 1498.02 684.67, 1500.57 683.50, 1503.73 681.87 C 1506.90 680.24, 1508.18 679.39, 1509.64 678.71 C 1511.09 678.03, 1511.04 677.91, 1511.01 678.48 C 1510.98 679.05, 1510.33 679.83, 1509.49 681.56 C 1508.64 683.29, 1507.74 684.57, 1506.80 687.13 C 1505.86 689.69, 1505.25 691.51, 1504.78 694.35 C 1504.30 697.20, 1504.18 698.85, 1504.42 701.35 C 1504.65 703.85, 1505.06 705.12, 1505.95 706.86 C 1506.85 708.59, 1507.71 709.23, 1508.87 710.04 C 1510.04 710.85, 1511.02 711.03, 1511.78 710.92 C 1512.54 710.81, 1512.79 710.15, 1512.65 709.49 C 1512.51 708.84, 1511.71 708.48, 1511.09 707.64 C 1510.46 706.80, 1509.95 706.59, 1509.54 705.31 C 1509.12 704.03, 1508.89 703.19, 1509.02 701.24 C 1509.14 699.29, 1509.48 697.99, 1510.16 695.54 C 1510.85 693.08, 1511.74 691.56, 1512.46 688.96 C 1513.19 686.36, 1513.71 684.81, 1513.78 682.54 C 1513.85 680.26, 1513.76 678.93, 1512.80 677.60 C 1511.83 676.27, 1511.08 675.68, 1508.94 675.89 C 1506.80 676.11, 1505.42 677.01, 1502.10 678.66 C 1498.79 680.32, 1496.52 681.87, 1492.38 684.17 C 1488.25 686.47, 1485.83 687.95, 1481.43 690.14 C 1477.03 692.34, 1474.65 693.45, 1470.39 695.16 C 1466.14 696.86, 1463.92 697.67, 1460.15 698.67 C 1456.37 699.66, 1454.46 699.72, 1451.53 700.13 C 1448.60 700.53, 1447.26 700.66, 1445.48 700.70 C 1443.70 700.74, 1443.08 700.88, 1442.64 700.35 C 1442.21 699.82, 1442.47 699.50, 1443.30 698.06 C 1444.13 696.62, 1445.03 695.55, 1446.78 693.14 C 1448.53 690.74, 1449.78 688.88, 1452.06 686.03 C 1454.35 683.17, 1456.01 681.57, 1458.21 678.88 C 1460.42 676.19, 1461.80 674.93, 1463.07 672.59 C 1464.35 670.25, 1464.64 668.91, 1464.58 667.19 C 1464.53 665.47, 1463.99 664.66, 1462.78 664.00 C 1461.57 663.34, 1460.53 663.43, 1458.53 663.89 C 1456.54 664.36, 1455.34 664.95, 1452.79 666.32 C 1450.25 667.70, 1448.87 668.84, 1445.81 670.77 C 1442.75 672.70, 1440.80 673.88, 1437.47 675.97 C 1434.15 678.05, 1432.29 679.31, 1429.20 681.20 C 1426.10 683.09, 1424.28 683.91, 1421.98 685.41 C 1419.67 686.92, 1418.82 687.91, 1417.67 688.72 C 1416.52 689.53, 1416.43 689.97, 1416.22 689.47 C 1416.01 688.97, 1416.26 688.27, 1416.61 686.23 C 1416.97 684.19, 1417.16 682.65, 1417.98 679.27 C 1418.80 675.89, 1419.35 673.67, 1420.71 669.33 C 1422.08 665.00, 1422.84 662.27, 1424.81 657.60 C 1426.79 652.92, 1428.14 650.46, 1430.57 645.95 C 1433.00 641.43, 1434.40 639.00, 1436.95 635.00 C 1439.49 631.01, 1440.80 628.99, 1443.29 625.97 C 1445.77 622.95, 1447.56 621.90, 1449.36 619.89 C 1451.16 617.87, 1451.60 616.91, 1452.30 615.90 C 1453.00 614.89, 1453.02 614.55, 1452.84 614.85 C 1452.67 615.15, 1452.53 615.56, 1451.44 617.40 C 1450.35 619.24, 1449.55 621.02, 1447.38 624.04 C 1445.21 627.06, 1443.66 628.99, 1440.59 632.50 C 1437.53 636.01, 1435.75 637.97, 1432.06 641.58 C 1428.37 645.19, 1426.27 646.97, 1422.14 650.57 C 1418.01 654.17, 1415.85 656.01, 1411.39 659.57 C 1406.93 663.13, 1404.62 664.94, 1399.86 668.37 C 1395.10 671.80, 1392.50 673.42, 1387.60 676.73 C 1382.71 680.05, 1380.06 681.75, 1375.37 684.93 C 1370.68 688.11, 1368.34 689.70, 1364.17 692.62 C 1360.00 695.54, 1357.95 696.85, 1354.53 699.52 C 1351.10 702.18, 1349.50 703.47, 1347.04 705.95 C 1344.58 708.43, 1343.39 709.46, 1342.21 711.91 C 1341.03 714.36, 1340.85 716.12, 1341.16 718.19 C 1341.47 720.27, 1342.11 721.33, 1343.75 722.28 C 1345.39 723.24, 1346.87 723.63, 1349.37 722.97 C 1351.86 722.30, 1353.36 721.17, 1356.24 718.96 C 1359.11 716.75, 1360.85 715.01, 1363.76 711.91 C 1366.67 708.81, 1368.17 706.68, 1370.79 703.48 C 1373.40 700.28, 1374.80 698.82, 1376.85 695.90 C 1378.90 692.98, 1380.13 691.44, 1381.03 688.89 C 1381.94 686.34, 1381.99 684.91, 1381.37 683.15 C 1380.75 681.39, 1380.05 680.51, 1377.93 680.10 C 1375.80 679.69, 1374.18 679.93, 1370.75 681.10 C 1367.33 682.26, 1365.26 683.60, 1360.81 685.94 C 1356.35 688.27, 1353.65 689.83, 1348.50 692.78 C 1343.35 695.73, 1340.47 697.63, 1335.07 700.69 C 1329.68 703.75, 1326.70 705.49, 1321.53 708.09 C 1316.36 710.69, 1313.68 712.04, 1309.22 713.69 C 1304.76 715.34, 1302.53 715.70, 1299.23 716.33 C 1295.93 716.97, 1294.54 717.01, 1292.71 716.85 C 1290.88 716.69, 1290.50 716.62, 1290.08 715.52 C 1289.67 714.42, 1290.01 713.46, 1290.64 711.36 C 1291.27 709.25, 1292.00 707.73, 1293.24 704.99 C 1294.48 702.24, 1295.62 700.54, 1296.83 697.62 C 1298.05 694.71, 1299.07 692.85, 1299.32 690.41 C 1299.56 687.97, 1299.32 686.70, 1298.06 685.43 C 1296.80 684.15, 1295.74 683.62, 1293.00 684.04 C 1290.26 684.46, 1288.43 685.53, 1284.34 687.53 C 1280.26 689.53, 1277.50 691.25, 1272.59 694.05 C 1267.68 696.85, 1264.66 698.78, 1259.80 701.54 C 1254.93 704.29, 1252.28 705.81, 1248.26 707.81 C 1244.24 709.81, 1242.30 710.38, 1239.69 711.53 C 1237.08 712.68, 1236.31 713.28, 1235.23 713.55 C 1234.15 713.82, 1234.19 713.72, 1234.29 712.87 C 1234.38 712.02, 1234.87 711.26, 1235.73 709.30 C 1236.59 707.34, 1237.31 705.81, 1238.59 703.06 C 1239.88 700.31, 1241.03 698.44, 1242.16 695.56 C 1243.28 692.69, 1244.01 690.89, 1244.23 688.70 C 1244.46 686.52, 1244.34 685.42, 1243.29 684.65 C 1242.24 683.88, 1241.18 683.80, 1238.98 684.86 C 1236.77 685.92, 1235.39 687.51, 1232.26 689.97 C 1229.13 692.42, 1227.17 694.32, 1223.34 697.14 C 1219.52 699.96, 1217.16 701.60, 1213.14 704.09 C 1209.13 706.58, 1207.09 707.77, 1203.27 709.58 C 1199.44 711.38, 1197.35 712.15, 1194.03 713.10 C 1190.70 714.05, 1189.10 714.13, 1186.66 714.31 C 1184.21 714.49, 1183.30 714.48, 1181.81 713.99 C 1180.31 713.50, 1179.76 713.09, 1179.18 711.88 C 1178.60 710.66, 1178.57 709.76, 1178.91 707.91 C 1179.24 706.07, 1179.87 704.93, 1180.86 702.64 C 1181.84 700.35, 1182.98 698.90, 1183.85 696.46 C 1184.71 694.02, 1185.16 692.37, 1185.19 690.43 C 1185.22 688.50, 1184.91 687.49, 1184.00 686.78 C 1183.08 686.07, 1182.25 686.15, 1180.63 686.89 C 1179.01 687.62, 1177.90 688.63, 1175.90 690.46 C 1173.90 692.28, 1172.98 693.89, 1170.61 696.00 C 1168.24 698.12, 1166.93 699.24, 1164.05 701.02 C 1161.16 702.80, 1159.60 703.51, 1156.20 704.92 C 1152.80 706.32, 1150.81 707.01, 1147.03 708.06 C 1143.26 709.10, 1141.20 709.53, 1137.32 710.14 C 1133.45 710.76, 1131.32 711.04, 1127.66 711.13 C 1123.99 711.22, 1122.18 711.18, 1118.99 710.59 C 1115.81 710.00, 1114.34 709.19, 1111.74 708.18 C 1109.15 707.17, 1107.73 706.52, 1106.03 705.55 C 1104.34 704.59, 1103.69 704.23, 1103.28 703.36 C 1102.86 702.49, 1102.98 702.18, 1103.96 701.20 C 1104.94 700.23, 1106.10 699.77, 1108.15 698.48 C 1110.21 697.20, 1111.52 696.29, 1114.22 694.78 C 1116.92 693.28, 1118.72 692.44, 1121.66 690.97 C 1124.59 689.51, 1126.22 688.76, 1128.92 687.46 C 1131.62 686.15, 1132.84 685.56, 1135.16 684.46 C 1137.48 683.36, 1138.65 682.96, 1140.53 681.96 C 1142.41 680.97, 1143.25 680.54, 1144.56 679.49 C 1145.86 678.43, 1146.39 677.90, 1147.06 676.68 C 1147.73 675.46, 1147.78 674.67, 1147.90 673.39 C 1148.02 672.11, 1147.93 671.55, 1147.66 670.26 C 1147.39 668.97, 1147.05 668.30, 1146.53 666.96 C 1146.00 665.61, 1145.68 664.89, 1145.03 663.55 C 1144.38 662.21, 1144.10 661.53, 1143.27 660.25 C 1142.44 658.97, 1141.97 658.27, 1140.87 657.15 C 1139.77 656.03, 1139.22 655.41, 1137.77 654.65 C 1136.32 653.89, 1135.58 653.48, 1133.62 653.35 C 1131.67 653.22, 1130.63 653.27, 1127.98 654.01 C 1125.32 654.74, 1123.94 655.45, 1120.34 657.02 C 1116.75 658.59, 1114.69 659.58, 1109.99 661.85 C 1105.30 664.13, 1102.44 665.71, 1096.85 668.40 C 1091.25 671.09, 1087.92 672.67, 1082.03 675.28 C 1076.13 677.90, 1072.84 679.40, 1067.36 681.48 C 1061.87 683.56, 1059.04 684.51, 1054.59 685.66 C 1050.14 686.81, 1048.04 687.03, 1045.11 687.23 C 1042.18 687.43, 1041.20 687.40, 1039.95 686.66 C 1038.70 685.93, 1038.66 685.35, 1038.86 683.55 C 1039.06 681.74, 1039.63 680.37, 1040.96 677.65 C 1042.29 674.93, 1043.54 672.98, 1045.50 669.96 C 1047.45 666.94, 1049.27 665.20, 1050.74 662.56 C 1052.20 659.92, 1052.73 658.32, 1052.80 656.75 C 1052.88 655.18, 1052.62 654.52, 1051.11 654.73 C 1049.60 654.93, 1048.18 655.72, 1045.25 657.76 C 1042.32 659.81, 1040.32 662.01, 1036.46 664.95 C 1032.61 667.90, 1030.24 669.61, 1025.98 672.51 C 1021.72 675.40, 1019.19 677.02, 1015.17 679.43 C 1011.15 681.84, 1008.90 682.93, 1005.87 684.56 C 1002.83 686.19, 1001.68 686.84, 1000.00 687.58 C 998.33 688.32, 997.70 688.61, 997.48 688.26 C 997.25 687.92, 997.59 687.56, 998.89 685.85 C 1000.19 684.14, 1001.06 682.54, 1003.96 679.71 C 1006.86 676.88, 1009.01 674.95, 1013.37 671.70 C 1017.74 668.45, 1020.79 666.53, 1025.80 663.45 C 1030.81 660.38, 1033.78 658.65, 1038.43 656.33 C 1043.08 654.00, 1045.71 653.35, 1049.06 651.82 C 1052.41 650.29, 1053.94 649.90, 1055.18 648.68 C 1056.42 647.47, 1056.40 646.53, 1055.25 645.76 C 1054.11 644.99, 1052.57 644.60, 1049.43 644.82 C 1046.29 645.03, 1044.06 645.87, 1039.55 646.85 C 1035.03 647.82, 1032.22 648.41, 1026.86 649.70 C 1021.51 650.99, 1018.46 651.89, 1012.77 653.29 C 1007.07 654.69, 1003.89 655.56, 998.40 656.71 C 992.91 657.86, 990.03 658.47, 985.32 659.03 C 980.61 659.58, 978.42 659.54, 974.87 659.48 C 971.31 659.41, 969.76 658.79, 967.54 658.69 C 965.32 658.59, 964.73 658.70, 963.77 658.99 C 962.81 659.28, 962.89 659.69, 962.74 660.14 C 962.60 660.59, 962.77 660.80, 963.04 661.24 C 963.31 661.69, 963.87 661.56, 964.09 662.35 C 964.31 663.14, 964.49 663.58, 964.16 665.19 C 963.83 666.81, 963.57 667.99, 962.45 670.41 C 961.34 672.83, 960.70 674.58, 958.57 677.30 C 956.44 680.03, 954.92 681.65, 951.80 684.02 C 948.69 686.40, 946.57 687.64, 942.98 689.17 C 939.40 690.71, 937.37 691.27, 933.90 691.69 C 930.42 692.11, 928.50 692.03, 925.60 691.26 C 922.71 690.50, 921.38 689.92, 919.41 687.84 C 917.43 685.77, 916.57 684.36, 915.71 680.90 C 914.86 677.44, 914.75 675.28, 915.13 670.55 C 915.51 665.81, 915.99 662.77, 917.63 657.24 C 919.26 651.71, 920.63 648.60, 923.31 642.88 C 925.98 637.16, 927.81 633.95, 930.99 628.65 C 934.18 623.36, 935.97 620.58, 939.24 616.40 C 942.51 612.23, 944.45 610.36, 947.35 607.77 C 950.25 605.19, 951.71 604.60, 953.74 603.50 C 955.77 602.39, 956.31 602.10, 957.49 602.23 C 958.66 602.36, 959.11 602.71, 959.61 604.14 C 960.12 605.57, 960.24 606.57, 960.00 609.36 C 959.75 612.16, 959.75 614.09, 958.40 618.12 C 957.06 622.16, 956.06 624.62, 953.29 629.55 C 950.52 634.48, 948.63 637.40, 944.56 642.78 C 940.48 648.17, 938.00 651.13, 932.94 656.49 C 927.87 661.85, 924.92 664.75, 919.23 669.58 C 913.54 674.42, 910.22 676.85, 904.48 680.67 C 898.74 684.49, 895.67 686.21, 890.54 688.68 C 885.40 691.16, 882.72 692.14, 878.80 693.06 C 874.87 693.99, 873.20 693.73, 870.92 693.30 C 868.63 692.87, 868.11 692.40, 867.36 690.91 C 866.62 689.43, 866.76 688.31, 867.20 685.88 C 867.64 683.45, 868.25 681.72, 869.58 678.78 C 870.90 675.85, 872.45 673.98, 873.82 671.19 C 875.18 668.39, 876.04 666.66, 876.41 664.81 C 876.78 662.95, 876.56 662.07, 875.66 661.90 C 874.76 661.73, 873.81 662.18, 871.92 663.96 C 870.03 665.73, 869.00 667.80, 866.22 670.79 C 863.43 673.78, 861.44 675.82, 857.98 678.90 C 854.52 681.98, 852.49 683.67, 848.92 686.21 C 845.34 688.75, 843.39 689.93, 840.12 691.59 C 836.85 693.24, 835.10 693.59, 832.57 694.48 C 830.03 695.38, 828.95 695.87, 827.45 696.06 C 825.95 696.25, 825.44 696.27, 825.05 695.44 C 824.66 694.61, 824.79 694.04, 825.50 691.91 C 826.21 689.78, 826.71 688.05, 828.60 684.79 C 830.49 681.54, 831.88 679.36, 834.93 675.63 C 837.99 671.91, 840.06 669.71, 843.89 666.16 C 847.72 662.60, 850.18 660.64, 854.10 657.87 C 858.01 655.11, 859.98 654.04, 863.49 652.33 C 866.99 650.63, 868.96 650.36, 871.61 649.34 C 874.26 648.32, 875.23 647.84, 876.72 647.24 C 878.21 646.65, 878.60 646.35, 879.04 646.36 C 879.48 646.36, 879.58 646.40, 878.91 647.27 C 878.25 648.14, 877.53 648.72, 875.71 650.70 C 873.89 652.68, 872.77 654.20, 869.80 657.17 C 866.83 660.15, 864.74 662.07, 860.85 665.57 C 856.96 669.07, 854.60 671.20, 850.37 674.68 C 846.15 678.16, 843.92 680.05, 839.71 682.97 C 835.51 685.88, 833.32 687.27, 829.35 689.26 C 825.39 691.25, 823.51 691.99, 819.86 692.92 C 816.22 693.85, 814.53 693.91, 811.12 693.93 C 807.71 693.94, 806.08 693.69, 802.81 692.98 C 799.53 692.27, 798.03 691.85, 794.75 690.38 C 791.48 688.91, 789.71 687.83, 786.41 685.64 C 783.11 683.45, 781.45 682.07, 778.24 679.44 C 775.03 676.81, 773.43 675.30, 770.35 672.48 C 767.26 669.67, 765.68 668.09, 762.80 665.37 C 759.93 662.65, 758.49 661.12, 755.97 658.88 C 753.46 656.64, 752.25 655.54, 750.23 654.16 C 748.22 652.79, 746.91 652.62, 745.90 652.00 C 744.88 651.38, 744.54 651.52, 745.14 651.05 C 745.74 650.58, 746.64 650.68, 748.91 649.65 C 751.18 648.62, 752.73 647.89, 756.50 645.91 C 760.27 643.92, 762.78 642.59, 767.76 639.74 C 772.74 636.90, 775.81 635.25, 781.39 631.70 C 786.96 628.15, 790.14 626.16, 795.63 621.98 C 801.13 617.81, 804.08 615.37, 808.85 610.84 C 813.62 606.31, 815.96 603.82, 819.49 599.33 C 823.01 594.84, 824.76 592.53, 826.46 588.38 C 828.16 584.24, 828.45 582.02, 827.98 578.59 C 827.51 575.16, 826.55 573.39, 824.12 571.24 C 821.68 569.09, 819.68 568.41, 815.81 567.86 C 811.94 567.30, 809.49 567.37, 804.76 568.47 C 800.04 569.56, 797.47 570.71, 792.20 573.35 C 786.93 575.99, 783.91 577.66, 778.41 581.66 C 772.91 585.65, 769.96 588.00, 764.69 593.32 C 759.43 598.65, 756.88 601.89, 752.08 608.28 C 747.28 614.67, 744.79 618.33, 740.69 625.28 C 736.60 632.22, 734.73 636.10, 731.61 643.01 C 728.49 649.91, 727.28 653.66, 725.09 659.82 C 722.91 665.99, 721.96 669.03, 720.69 673.84 C 719.41 678.65, 718.57 680.94, 718.72 683.86 C 718.87 686.79, 719.98 687.90, 721.43 688.46 C 722.88 689.01, 724.13 688.47, 725.98 686.63 C 727.83 684.80, 728.52 682.96, 730.67 679.28 C 732.81 675.60, 734.18 673.11, 736.72 668.23 C 739.26 663.34, 740.71 660.45, 743.37 654.85 C 746.03 649.25, 747.52 645.97, 750.03 640.23 C 752.53 634.49, 753.95 631.33, 755.89 626.17 C 757.83 621.00, 758.57 618.33, 759.73 614.41 C 760.88 610.50, 761.45 608.96, 761.66 606.58 C 761.86 604.21, 761.27 603.37, 760.75 602.55 C 760.22 601.73, 759.63 601.80, 759.04 602.47" style="stroke: black; fill: black;"/><path d="M 1524.86,649.06 C 1525.05 648.53, 1524.50 647.78, 1523.94 647.81 C 1523.38 647.84, 1522.25 648.68, 1522.05 649.21 C 1521.86 649.73, 1522.41 650.48, 1522.97 650.45 C 1523.53 650.42, 1524.66 649.58, 1524.86 649.06" style="stroke: black; fill: black;"/></svg>