<svg xmlns="http://www.w3.org/2000/svg" id="canvas" viewBox="301.080 548.297 1576.007 283.774"><path d="M 445.45,565.11 C 445.24 563.68, 444.70 561.41, 442.64 559.11 C 440.59 556.82, 439.05 555.17, 435.18 553.63 C 431.31 552.08, 428.88 550.94, 423.28 551.40 C 417.67 551.87, 414.44 552.68, 407.15 555.94 C 399.86 559.21, 395.58 561.70, 386.84 567.74 C 378.10 573.78, 372.79 577.64, 363.46 586.14 C 354.14 594.63, 348.80 599.92, 340.21 610.22 C 331.63 620.53, 327.01 626.47, 320.53 637.66 C 314.05 648.86, 311.08 654.96, 307.81 666.19 C 304.54 677.42, 303.81 683.42, 304.16 693.80 C 304.51 704.19, 305.70 709.37, 309.56 718.11 C 313.42 726.86, 316.46 731.07, 323.46 737.53 C 330.45 743.99, 335.16 746.64, 344.55 750.42 C 353.95 754.20, 359.74 755.25, 370.44 756.42 C 381.13 757.59, 387.06 757.31, 398.03 756.28 C 409.00 755.25, 415.08 753.93, 425.30 751.27 C 435.52 748.61, 440.56 746.75, 449.14 742.97 C 457.72 739.19, 461.70 736.83, 468.20 732.35 C 474.70 727.88, 477.38 725.20, 481.64 720.60 C 485.91 716.00, 487.42 713.54, 489.53 709.35 C 491.64 705.16, 492.36 703.01, 492.21 699.64 C 492.05 696.27, 490.98 694.42, 488.78 692.50 C 486.57 690.59, 484.75 689.96, 481.17 690.06 C 477.58 690.17, 475.30 690.96, 470.84 693.05 C 466.38 695.13, 463.56 696.81, 458.86 700.50 C 454.16 704.19, 451.41 706.67, 447.35 711.48 C 443.28 716.30, 440.90 719.38, 438.55 724.57 C 436.20 729.77, 435.37 732.69, 435.60 737.47 C 435.84 742.26, 436.82 744.85, 439.74 748.50 C 442.65 752.15, 445.23 753.83, 450.20 755.73 C 455.17 757.63, 458.65 758.04, 464.57 758.00 C 470.50 757.95, 474.02 757.34, 479.82 755.50 C 485.62 753.67, 488.70 752.13, 493.59 748.81 C 498.48 745.49, 501.13 743.33, 504.28 738.90 C 507.44 734.46, 508.56 731.57, 509.37 726.62 C 510.17 721.67, 509.94 718.76, 508.32 714.14 C 506.69 709.51, 504.98 707.18, 501.24 703.49 C 497.50 699.81, 494.57 697.88, 489.61 695.70 C 484.66 693.52, 481.43 693.06, 476.47 692.58 C 471.51 692.11, 468.57 692.65, 464.83 693.33 C 461.09 694.01, 459.70 694.78, 457.77 696.01 C 455.85 697.24, 455.55 698.61, 455.21 699.48 C 454.86 700.36, 455.27 700.56, 456.05 700.37 C 456.82 700.18, 457.21 699.28, 459.09 698.54 C 460.96 697.79, 462.00 697.26, 465.43 696.64 C 468.86 696.02, 471.61 695.15, 476.24 695.45 C 480.86 695.75, 483.92 696.15, 488.56 698.13 C 493.20 700.11, 495.96 701.97, 499.43 705.34 C 502.90 708.72, 504.42 710.81, 505.92 714.99 C 507.41 719.16, 507.63 721.72, 506.91 726.23 C 506.19 730.73, 505.26 733.38, 502.34 737.52 C 499.41 741.65, 496.94 743.75, 492.29 746.90 C 487.65 750.05, 484.67 751.55, 479.12 753.28 C 473.57 755.01, 470.16 755.54, 464.56 755.56 C 458.95 755.57, 455.67 755.09, 451.10 753.37 C 446.52 751.64, 444.30 750.12, 441.69 746.92 C 439.09 743.72, 438.25 741.63, 438.06 737.36 C 437.87 733.09, 438.51 730.43, 440.73 725.57 C 442.96 720.71, 445.25 717.65, 449.19 713.06 C 453.14 708.47, 455.89 706.04, 460.47 702.61 C 465.06 699.17, 467.94 697.68, 472.12 695.87 C 476.29 694.06, 478.40 693.77, 481.33 693.57 C 484.26 693.37, 485.21 693.64, 486.78 694.89 C 488.35 696.13, 489.05 697.09, 489.17 699.78 C 489.29 702.47, 489.17 704.40, 487.38 708.32 C 485.60 712.23, 484.26 714.78, 480.25 719.34 C 476.23 723.89, 473.64 726.60, 467.31 731.08 C 460.98 735.55, 457.05 737.93, 448.58 741.72 C 440.11 745.51, 435.11 747.37, 424.98 750.03 C 414.84 752.69, 408.79 754.00, 397.91 755.03 C 387.03 756.06, 381.15 756.32, 370.58 755.16 C 360.00 754.00, 354.29 752.93, 345.04 749.22 C 335.79 745.50, 331.20 742.90, 324.33 736.58 C 317.47 730.25, 314.50 726.17, 310.70 717.61 C 306.90 709.04, 305.70 703.98, 305.33 693.76 C 304.96 683.54, 305.64 677.61, 308.86 666.50 C 312.08 655.38, 315.00 649.31, 321.44 638.19 C 327.88 627.08, 332.48 621.15, 341.05 610.92 C 349.61 600.69, 354.95 595.43, 364.27 587.03 C 373.59 578.63, 378.93 574.81, 387.65 568.93 C 396.37 563.05, 400.73 560.64, 407.88 557.63 C 415.04 554.62, 418.24 554.08, 423.43 553.89 C 428.62 553.71, 430.56 555.10, 433.82 556.71 C 437.07 558.32, 437.73 560.01, 439.71 561.92 C 441.69 563.83, 442.57 565.62, 443.72 566.25 C 444.87 566.89, 445.67 566.54, 445.45 565.11" style="stroke: black; fill: black;"/><path d="M 531.46,715.16 C 531.91 716.47, 533.27 717.96, 535.14 720.21 C 537.02 722.45, 538.62 723.76, 540.83 726.39 C 543.04 729.01, 544.17 731.24, 546.19 733.35 C 548.21 735.46, 549.39 736.40, 550.93 736.94 C 552.47 737.48, 553.08 737.33, 553.90 736.05 C 554.72 734.77, 555.21 733.50, 555.01 730.54 C 554.81 727.58, 553.80 725.31, 552.91 721.25 C 552.02 717.20, 551.15 714.49, 550.55 710.26 C 549.96 706.03, 549.79 703.63, 549.93 700.09 C 550.06 696.54, 550.24 694.95, 551.23 692.55 C 552.21 690.15, 552.60 689.51, 554.84 688.09 C 557.09 686.67, 558.68 686.22, 562.46 685.43 C 566.24 684.64, 568.76 684.46, 573.76 684.13 C 578.75 683.81, 581.70 683.81, 587.43 683.80 C 593.16 683.78, 596.48 683.95, 602.41 684.06 C 608.34 684.17, 611.62 684.36, 617.10 684.35 C 622.57 684.34, 625.19 684.46, 629.79 684.02 C 634.40 683.58, 636.65 683.25, 640.12 682.14 C 643.59 681.03, 645.21 680.29, 647.13 678.47 C 649.05 676.66, 649.65 675.37, 649.72 673.06 C 649.78 670.74, 649.36 668.84, 647.44 666.89 C 645.51 664.95, 643.60 664.08, 640.10 663.32 C 636.61 662.57, 634.18 662.60, 629.94 663.12 C 625.69 663.64, 623.06 664.17, 618.88 665.93 C 614.70 667.69, 612.29 668.95, 609.05 671.90 C 605.81 674.86, 604.18 676.89, 602.68 680.71 C 601.17 684.53, 600.91 686.94, 601.52 690.99 C 602.14 695.03, 603.02 697.27, 605.75 700.94 C 608.48 704.62, 610.59 706.55, 615.17 709.37 C 619.74 712.18, 622.98 713.44, 628.62 715.03 C 634.26 716.62, 637.41 717.11, 643.36 717.32 C 649.30 717.53, 652.53 717.35, 658.35 716.08 C 664.16 714.81, 667.24 713.62, 672.43 710.98 C 677.61 708.34, 680.09 706.45, 684.26 702.89 C 688.43 699.33, 690.28 697.07, 693.26 693.17 C 696.25 689.27, 697.39 686.97, 699.18 683.39 C 700.97 679.81, 701.66 677.83, 702.21 675.29 C 702.76 672.74, 702.21 671.41, 701.94 670.67 C 701.68 669.93, 700.86 670.30, 700.90 671.61 C 700.93 672.91, 700.71 674.44, 702.11 677.19 C 703.50 679.94, 705.02 681.76, 707.87 685.36 C 710.72 688.96, 712.61 691.47, 716.36 695.21 C 720.12 698.95, 722.31 701.10, 726.64 704.07 C 730.96 707.03, 733.44 708.31, 737.99 710.05 C 742.55 711.78, 745.02 712.42, 749.42 712.76 C 753.82 713.11, 756.09 712.76, 760.00 711.77 C 763.92 710.78, 765.78 709.72, 768.98 707.80 C 772.18 705.89, 773.56 704.50, 776.02 702.22 C 778.48 699.93, 779.50 698.44, 781.29 696.39 C 783.09 694.34, 783.57 693.07, 784.98 691.97 C 786.39 690.87, 786.44 690.29, 788.34 690.88 C 790.23 691.47, 791.50 692.21, 794.45 694.93 C 797.39 697.64, 799.14 699.52, 803.07 704.46 C 807.01 709.40, 809.81 712.98, 814.11 719.64 C 818.41 726.30, 820.76 730.25, 824.57 737.77 C 828.37 745.29, 830.57 749.58, 833.15 757.25 C 835.73 764.91, 836.79 768.92, 837.47 776.11 C 838.15 783.30, 838.10 786.84, 836.55 793.17 C 835.01 799.50, 833.61 802.57, 829.73 807.76 C 825.86 812.95, 823.22 815.57, 817.19 819.13 C 811.17 822.70, 807.16 824.00, 799.62 825.60 C 792.07 827.20, 787.28 827.59, 779.45 827.14 C 771.61 826.68, 767.01 825.98, 760.43 823.32 C 753.85 820.65, 750.38 818.68, 746.53 813.81 C 742.69 808.94, 741.77 805.79, 741.22 798.98 C 740.66 792.17, 741.18 787.77, 743.74 779.76 C 746.30 771.75, 748.81 767.01, 754.02 758.92 C 759.24 750.82, 762.87 746.51, 769.82 739.30 C 776.77 732.10, 781.01 728.47, 788.78 722.89 C 796.55 717.32, 800.82 715.18, 808.68 711.42 C 816.54 707.67, 821.06 706.40, 828.07 704.13 C 835.08 701.85, 838.65 701.29, 843.71 700.05 C 848.77 698.82, 851.49 698.67, 853.36 697.96 C 855.24 697.25, 855.09 696.45, 853.08 696.50 C 851.06 696.56, 848.38 697.03, 843.27 698.23 C 838.17 699.43, 834.58 700.12, 827.53 702.49 C 820.48 704.86, 815.95 706.23, 808.04 710.09 C 800.12 713.94, 795.81 716.11, 787.97 721.76 C 780.12 727.41, 775.85 731.06, 768.81 738.33 C 761.77 745.60, 758.09 749.92, 752.77 758.10 C 747.45 766.29, 744.86 771.07, 742.21 779.27 C 739.56 787.47, 738.93 791.99, 739.52 799.12 C 740.11 806.24, 741.10 809.73, 745.15 814.89 C 749.20 820.06, 752.92 822.16, 759.76 824.96 C 766.60 827.76, 771.30 828.41, 779.34 828.88 C 787.39 829.36, 792.23 828.97, 799.98 827.33 C 807.74 825.69, 811.87 824.39, 818.12 820.69 C 824.36 817.00, 827.17 814.27, 831.20 808.85 C 835.23 803.43, 836.69 800.18, 838.29 793.60 C 839.88 787.01, 839.88 783.32, 839.17 775.95 C 838.46 768.57, 837.35 764.51, 834.74 756.71 C 832.13 748.92, 829.92 744.61, 826.13 736.99 C 822.34 729.36, 820.01 725.38, 815.80 718.58 C 811.58 711.77, 808.87 708.14, 805.05 702.95 C 801.22 697.75, 799.80 695.69, 796.65 692.61 C 793.50 689.52, 792.01 688.25, 789.30 687.52 C 786.59 686.79, 785.37 687.78, 783.11 688.95 C 780.85 690.13, 779.96 691.30, 777.99 693.40 C 776.03 695.50, 775.45 697.15, 773.27 699.44 C 771.10 701.73, 769.95 703.00, 767.13 704.85 C 764.31 706.71, 762.68 707.71, 759.18 708.71 C 755.68 709.72, 753.67 710.11, 749.62 709.87 C 745.58 709.62, 743.25 709.10, 738.96 707.49 C 734.68 705.87, 732.29 704.68, 728.21 701.80 C 724.13 698.93, 722.01 696.84, 718.57 693.09 C 715.12 689.35, 713.44 686.73, 711.01 683.07 C 708.57 679.42, 707.95 677.34, 706.38 674.80 C 704.82 672.26, 704.35 671.35, 703.18 670.39 C 702.00 669.43, 701.46 669.24, 700.51 670.00 C 699.55 670.77, 699.24 671.79, 698.39 674.20 C 697.54 676.61, 697.71 678.57, 696.25 682.04 C 694.80 685.52, 693.82 687.77, 691.11 691.58 C 688.39 695.38, 686.61 697.58, 682.67 701.05 C 678.72 704.52, 676.33 706.36, 671.37 708.93 C 666.41 711.49, 663.45 712.65, 657.87 713.86 C 652.28 715.08, 649.16 715.24, 643.45 714.99 C 637.74 714.74, 634.68 714.22, 629.31 712.63 C 623.94 711.05, 620.84 709.75, 616.60 707.07 C 612.36 704.38, 610.51 702.52, 608.11 699.21 C 605.71 695.90, 605.10 694.00, 604.60 690.53 C 604.11 687.07, 604.31 685.14, 605.63 681.89 C 606.95 678.64, 608.30 676.86, 611.20 674.29 C 614.10 671.73, 616.33 670.54, 620.15 669.06 C 623.97 667.57, 626.51 667.15, 630.31 666.87 C 634.12 666.58, 636.30 667.02, 639.19 667.62 C 642.09 668.22, 643.30 668.79, 644.80 669.87 C 646.30 670.95, 646.68 671.81, 646.70 673.03 C 646.72 674.24, 646.44 674.75, 644.91 675.94 C 643.39 677.13, 642.16 677.91, 639.07 678.98 C 635.98 680.05, 633.88 680.70, 629.48 681.28 C 625.08 681.86, 622.48 681.80, 617.08 681.87 C 611.67 681.94, 608.38 681.76, 602.46 681.63 C 596.53 681.50, 593.22 681.30, 587.45 681.22 C 581.68 681.13, 578.74 681.01, 573.61 681.20 C 568.48 681.38, 565.95 681.38, 561.81 682.15 C 557.67 682.93, 555.69 683.28, 552.91 685.08 C 550.14 686.88, 549.22 688.17, 547.92 691.14 C 546.61 694.11, 546.60 696.01, 546.39 699.93 C 546.19 703.84, 546.46 706.28, 546.90 710.70 C 547.34 715.12, 547.97 717.93, 548.59 722.05 C 549.21 726.17, 549.35 728.55, 550.02 731.30 C 550.68 734.04, 551.39 735.01, 551.91 735.77 C 552.44 736.52, 552.97 736.25, 552.66 735.07 C 552.34 733.90, 552.03 732.25, 550.36 729.90 C 548.69 727.54, 546.71 725.86, 544.29 723.30 C 541.87 720.74, 540.55 719.03, 538.27 717.10 C 535.99 715.17, 534.25 714.03, 532.89 713.64 C 531.53 713.25, 531.01 713.85, 531.46 715.16" style="stroke: black; fill: black;"/><path d="M 983.38,588.17 C 983.30 589.42, 983.47 590.52, 984.63 593.84 C 985.78 597.17, 987.12 599.35, 989.16 604.80 C 991.21 610.26, 992.62 614.18, 994.84 621.11 C 997.06 628.04, 998.29 632.37, 1000.26 639.45 C 1002.24 646.53, 1003.17 650.27, 1004.70 656.52 C 1006.23 662.76, 1006.98 665.87, 1007.92 670.68 C 1008.86 675.50, 1008.85 677.68, 1009.41 680.60 C 1009.97 683.51, 1010.48 684.52, 1010.74 685.24 C 1011.00 685.96, 1011.39 685.62, 1010.70 684.19 C 1010.02 682.76, 1009.13 681.50, 1007.32 678.08 C 1005.51 674.66, 1003.89 672.31, 1001.65 667.09 C 999.40 661.86, 998.03 658.54, 996.10 651.96 C 994.17 645.39, 993.15 641.47, 991.98 634.20 C 990.82 626.94, 990.16 622.85, 990.28 615.64 C 990.39 608.43, 990.92 604.73, 992.54 598.17 C 994.16 591.61, 995.39 588.17, 998.39 582.83 C 1001.38 577.49, 1003.39 575.17, 1007.50 571.47 C 1011.61 567.77, 1013.89 566.14, 1018.93 564.32 C 1023.97 562.51, 1027.34 562.21, 1032.71 562.37 C 1038.07 562.54, 1041.08 563.29, 1045.76 565.15 C 1050.44 567.01, 1052.83 568.40, 1056.11 571.65 C 1059.38 574.91, 1060.96 577.19, 1062.14 581.43 C 1063.32 585.67, 1063.25 587.96, 1062.02 592.85 C 1060.79 597.74, 1059.28 600.58, 1056.01 605.88 C 1052.74 611.19, 1050.36 614.05, 1045.66 619.38 C 1040.95 624.71, 1037.61 627.49, 1032.49 632.53 C 1027.37 637.57, 1024.25 639.93, 1020.05 644.59 C 1015.84 649.25, 1013.81 651.37, 1011.47 655.82 C 1009.12 660.27, 1008.06 662.50, 1008.34 666.85 C 1008.61 671.19, 1009.77 673.45, 1012.84 677.55 C 1015.91 681.65, 1018.43 683.60, 1023.68 687.33 C 1028.93 691.07, 1032.25 692.91, 1039.11 696.22 C 1045.96 699.53, 1050.85 701.30, 1057.96 703.89 C 1065.07 706.48, 1069.03 707.52, 1074.66 709.18 C 1080.29 710.84, 1083.74 711.92, 1086.12 712.20 C 1088.50 712.48, 1088.75 711.56, 1086.57 710.58 C 1084.39 709.60, 1080.81 709.02, 1075.22 707.31 C 1069.64 705.59, 1065.70 704.58, 1058.65 701.99 C 1051.61 699.41, 1046.73 697.68, 1040.00 694.38 C 1033.26 691.09, 1030.02 689.19, 1024.98 685.53 C 1019.93 681.87, 1017.63 679.86, 1014.79 676.09 C 1011.95 672.32, 1011.03 670.53, 1010.78 666.69 C 1010.52 662.85, 1011.33 661.03, 1013.50 656.89 C 1015.67 652.75, 1017.54 650.59, 1021.62 646.00 C 1025.70 641.42, 1028.79 639.01, 1033.90 633.96 C 1039.02 628.91, 1042.40 626.13, 1047.20 620.75 C 1051.99 615.36, 1054.45 612.51, 1057.87 607.04 C 1061.30 601.58, 1063.00 598.69, 1064.33 593.43 C 1065.67 588.18, 1065.85 585.48, 1064.56 580.76 C 1063.27 576.05, 1061.47 573.44, 1057.89 569.86 C 1054.31 566.28, 1051.69 564.84, 1046.66 562.86 C 1041.64 560.89, 1038.47 560.14, 1032.77 560.01 C 1027.07 559.89, 1023.50 560.25, 1018.16 562.23 C 1012.83 564.21, 1010.39 565.98, 1006.08 569.90 C 1001.78 573.83, 999.71 576.29, 996.64 581.86 C 993.56 587.42, 992.35 590.96, 990.70 597.71 C 989.05 604.46, 988.54 608.25, 988.41 615.61 C 988.28 622.97, 988.94 627.11, 990.05 634.50 C 991.15 641.90, 992.16 645.83, 993.94 652.56 C 995.72 659.30, 996.93 662.70, 998.94 668.16 C 1000.94 673.63, 1002.02 676.31, 1003.96 679.89 C 1005.90 683.46, 1007.01 684.88, 1008.65 686.04 C 1010.29 687.19, 1011.36 686.85, 1012.17 685.66 C 1012.98 684.47, 1013.07 683.19, 1012.70 680.09 C 1012.33 676.98, 1011.52 674.96, 1010.33 670.15 C 1009.13 665.33, 1008.34 662.25, 1006.72 656.01 C 1005.10 649.76, 1004.17 646.02, 1002.23 638.91 C 1000.29 631.79, 999.12 627.44, 997.02 620.44 C 994.93 613.43, 993.62 609.43, 991.75 603.88 C 989.87 598.33, 988.99 595.96, 987.64 592.70 C 986.29 589.44, 985.86 588.49, 985.00 587.58 C 984.15 586.68, 983.45 586.91, 983.38 588.17" style="stroke: black; fill: black;"/><path d="M 1136.93,657.69 C 1136.08 656.57, 1134.70 654.75, 1131.77 653.84 C 1128.83 652.92, 1126.52 652.59, 1122.25 653.12 C 1117.98 653.64, 1115.03 654.18, 1110.40 656.47 C 1105.78 658.76, 1103.08 660.95, 1099.12 664.55 C 1095.15 668.14, 1092.89 670.35, 1090.58 674.45 C 1088.27 678.55, 1087.49 681.12, 1087.58 685.06 C 1087.67 689.00, 1088.72 691.21, 1091.05 694.17 C 1093.37 697.13, 1095.33 698.36, 1099.21 699.87 C 1103.08 701.38, 1105.79 701.82, 1110.42 701.71 C 1115.04 701.60, 1117.83 700.90, 1122.34 699.32 C 1126.86 697.74, 1129.13 696.28, 1132.99 693.80 C 1136.85 691.33, 1138.87 689.50, 1141.63 686.94 C 1144.39 684.39, 1145.38 682.61, 1146.79 681.05 C 1148.19 679.48, 1147.92 678.87, 1148.65 679.14 C 1149.38 679.41, 1149.38 680.48, 1150.43 682.41 C 1151.49 684.34, 1152.04 686.07, 1153.90 688.79 C 1155.77 691.50, 1156.95 693.58, 1159.74 695.98 C 1162.54 698.39, 1164.27 699.77, 1167.89 700.83 C 1171.51 701.89, 1173.68 701.94, 1177.84 701.28 C 1181.99 700.63, 1184.29 699.97, 1188.66 697.56 C 1193.03 695.15, 1195.67 693.47, 1199.71 689.24 C 1203.75 685.01, 1205.85 682.35, 1208.87 676.41 C 1211.88 670.47, 1213.26 666.76, 1214.78 659.53 C 1216.29 652.29, 1216.56 648.12, 1216.43 640.25 C 1216.30 632.37, 1215.98 628.05, 1214.14 620.16 C 1212.30 612.27, 1210.61 608.00, 1207.23 600.80 C 1203.85 593.60, 1201.44 589.94, 1197.25 584.18 C 1193.07 578.42, 1190.53 575.74, 1186.32 572.00 C 1182.10 568.27, 1179.90 566.71, 1176.18 565.50 C 1172.46 564.30, 1170.31 564.33, 1167.70 566.00 C 1165.09 567.66, 1163.84 569.55, 1163.13 573.85 C 1162.42 578.14, 1162.69 581.14, 1164.16 587.47 C 1165.64 593.81, 1167.09 597.96, 1170.51 605.53 C 1173.92 613.10, 1176.33 617.45, 1181.25 625.32 C 1186.17 633.19, 1189.33 637.75, 1195.12 644.87 C 1200.92 652.00, 1204.22 655.34, 1210.22 660.96 C 1216.22 666.57, 1219.47 668.98, 1225.11 672.93 C 1230.75 676.88, 1233.39 678.39, 1238.43 680.70 C 1243.47 683.01, 1245.93 683.71, 1250.31 684.47 C 1254.70 685.24, 1256.69 685.18, 1260.35 684.51 C 1264.01 683.83, 1265.70 682.95, 1268.60 681.09 C 1271.49 679.24, 1272.62 677.84, 1274.82 675.24 C 1277.02 672.64, 1277.88 671.04, 1279.61 668.09 C 1281.34 665.13, 1282.08 663.47, 1283.48 660.48 C 1284.89 657.48, 1285.26 655.90, 1286.65 653.11 C 1288.04 650.31, 1288.62 648.99, 1290.41 646.50 C 1292.21 644.01, 1293.23 642.86, 1295.64 640.65 C 1298.04 638.44, 1299.36 637.38, 1302.43 635.47 C 1305.51 633.55, 1307.42 632.62, 1311.01 631.08 C 1314.60 629.54, 1316.77 628.81, 1320.39 627.76 C 1324.00 626.71, 1326.19 626.53, 1329.10 625.82 C 1332.01 625.12, 1333.36 624.84, 1334.93 624.24 C 1336.49 623.64, 1336.94 623.26, 1336.93 622.83 C 1336.91 622.40, 1336.39 621.81, 1334.85 622.10 C 1333.30 622.39, 1331.88 622.75, 1329.18 624.28 C 1326.48 625.82, 1324.82 627.11, 1321.36 629.77 C 1317.90 632.43, 1315.63 634.13, 1311.88 637.59 C 1308.13 641.05, 1305.84 643.26, 1302.62 647.05 C 1299.41 650.84, 1297.61 652.83, 1295.80 656.54 C 1294.00 660.25, 1293.38 662.27, 1293.62 665.60 C 1293.86 668.94, 1294.96 670.83, 1297.00 673.22 C 1299.04 675.61, 1300.76 676.64, 1303.83 677.55 C 1306.90 678.46, 1308.89 678.28, 1312.33 677.77 C 1315.77 677.26, 1317.84 676.39, 1321.02 675.00 C 1324.20 673.61, 1325.70 672.28, 1328.23 670.81 C 1330.76 669.34, 1331.78 668.46, 1333.67 667.66 C 1335.57 666.86, 1336.14 666.68, 1337.71 666.80 C 1339.27 666.92, 1339.73 667.29, 1341.50 668.26 C 1343.27 669.22, 1344.27 670.19, 1346.54 671.61 C 1348.82 673.02, 1350.19 673.99, 1352.87 675.34 C 1355.54 676.69, 1357.13 677.51, 1359.92 678.36 C 1362.70 679.22, 1364.22 679.66, 1366.80 679.62 C 1369.38 679.58, 1370.85 679.39, 1372.81 678.16 C 1374.77 676.93, 1375.64 675.73, 1376.62 673.49 C 1377.60 671.24, 1377.37 669.60, 1377.72 666.94 C 1378.07 664.28, 1378.19 662.82, 1378.37 660.18 C 1378.54 657.54, 1378.08 655.85, 1378.61 653.75 C 1379.14 651.65, 1379.46 650.99, 1381.03 649.68 C 1382.60 648.38, 1383.74 647.85, 1386.48 647.22 C 1389.21 646.60, 1391.10 646.39, 1394.69 646.55 C 1398.29 646.72, 1400.56 647.03, 1404.45 648.05 C 1408.35 649.08, 1410.76 649.97, 1414.18 651.67 C 1417.60 653.36, 1419.29 654.45, 1421.56 656.52 C 1423.84 658.59, 1424.48 659.75, 1425.55 662.00 C 1426.62 664.26, 1426.79 665.45, 1426.91 667.79 C 1427.03 670.13, 1426.63 671.31, 1426.17 673.71 C 1425.71 676.11, 1425.08 677.37, 1424.62 679.80 C 1424.16 682.22, 1423.83 683.49, 1423.86 685.83 C 1423.88 688.18, 1423.92 689.34, 1424.75 691.51 C 1425.57 693.68, 1425.97 694.70, 1427.96 696.68 C 1429.95 698.66, 1431.41 699.57, 1434.70 701.41 C 1438.00 703.25, 1440.27 704.25, 1444.43 705.87 C 1448.58 707.49, 1451.01 708.20, 1455.46 709.52 C 1459.91 710.84, 1462.48 711.45, 1466.68 712.46 C 1470.88 713.46, 1473.15 714.03, 1476.46 714.54 C 1479.78 715.06, 1481.25 715.25, 1483.25 715.04 C 1485.24 714.84, 1485.97 714.43, 1486.44 713.51 C 1486.91 712.60, 1487.01 711.61, 1485.59 710.47 C 1484.16 709.33, 1482.75 708.57, 1479.33 707.80 C 1475.90 707.03, 1473.08 706.92, 1468.47 706.63 C 1463.86 706.34, 1461.15 706.24, 1456.27 706.34 C 1451.39 706.45, 1446.50 706.51, 1444.08 707.16 C 1441.66 707.81, 1441.73 709.14, 1444.17 709.61 C 1446.60 710.08, 1451.46 709.36, 1456.25 709.53 C 1461.03 709.69, 1463.67 709.83, 1468.09 710.44 C 1472.51 711.05, 1475.08 711.97, 1478.34 712.58 C 1481.59 713.20, 1482.84 713.47, 1484.35 713.52 C 1485.86 713.57, 1486.04 713.19, 1485.86 712.82 C 1485.68 712.44, 1485.21 712.07, 1483.44 711.65 C 1481.68 711.22, 1480.26 711.18, 1477.05 710.70 C 1473.84 710.22, 1471.53 710.10, 1467.40 709.25 C 1463.26 708.39, 1460.72 707.77, 1456.39 706.43 C 1452.07 705.10, 1449.70 704.31, 1445.78 702.59 C 1441.86 700.88, 1439.75 699.66, 1436.79 697.84 C 1433.83 696.03, 1432.68 695.05, 1430.99 693.51 C 1429.30 691.97, 1428.91 691.66, 1428.34 690.16 C 1427.78 688.65, 1428.00 687.87, 1428.17 685.98 C 1428.35 684.10, 1428.70 683.04, 1429.20 680.73 C 1429.71 678.43, 1430.31 677.12, 1430.69 674.46 C 1431.07 671.80, 1431.40 670.29, 1431.09 667.44 C 1430.78 664.59, 1430.55 662.95, 1429.14 660.22 C 1427.73 657.48, 1426.70 656.11, 1424.02 653.76 C 1421.34 651.42, 1419.46 650.34, 1415.74 648.51 C 1412.01 646.68, 1409.55 645.77, 1405.38 644.61 C 1401.22 643.45, 1398.90 643.01, 1394.93 642.71 C 1390.96 642.41, 1388.83 642.34, 1385.53 643.10 C 1382.23 643.87, 1380.65 644.69, 1378.42 646.53 C 1376.19 648.38, 1375.44 649.69, 1374.37 652.32 C 1373.31 654.94, 1373.45 656.83, 1373.10 659.67 C 1372.74 662.50, 1372.71 664.00, 1372.61 666.50 C 1372.51 669.00, 1372.94 670.44, 1372.61 672.16 C 1372.28 673.88, 1372.08 674.47, 1370.96 675.10 C 1369.84 675.74, 1368.92 675.63, 1367.03 675.34 C 1365.14 675.06, 1363.89 674.60, 1361.53 673.68 C 1359.17 672.77, 1357.71 672.09, 1355.24 670.77 C 1352.76 669.45, 1351.56 668.39, 1349.16 667.09 C 1346.75 665.80, 1345.46 665.07, 1343.21 664.30 C 1340.96 663.52, 1340.09 663.31, 1337.91 663.22 C 1335.73 663.13, 1334.71 663.13, 1332.32 663.85 C 1329.93 664.57, 1328.59 665.38, 1325.98 666.82 C 1323.36 668.26, 1322.09 669.71, 1319.23 671.05 C 1316.37 672.40, 1314.52 673.06, 1311.66 673.55 C 1308.81 674.03, 1307.31 674.04, 1304.95 673.46 C 1302.59 672.89, 1301.41 672.29, 1299.84 670.66 C 1298.27 669.03, 1297.35 667.87, 1297.11 665.32 C 1296.87 662.77, 1297.08 661.17, 1298.65 657.91 C 1300.21 654.65, 1301.86 652.60, 1304.93 649.01 C 1308.00 645.42, 1310.26 643.17, 1313.99 639.96 C 1317.72 636.75, 1320.02 635.20, 1323.58 632.96 C 1327.15 630.72, 1329.18 630.33, 1331.79 628.76 C 1334.40 627.20, 1335.51 626.42, 1336.63 625.14 C 1337.76 623.86, 1337.85 623.21, 1337.42 622.36 C 1336.99 621.50, 1336.35 621.00, 1334.49 620.85 C 1332.63 620.70, 1331.16 620.91, 1328.12 621.59 C 1325.07 622.26, 1322.98 622.97, 1319.27 624.22 C 1315.57 625.46, 1313.35 626.19, 1309.60 627.82 C 1305.85 629.45, 1303.83 630.36, 1300.53 632.36 C 1297.22 634.36, 1295.74 635.46, 1293.08 637.82 C 1290.42 640.18, 1289.23 641.47, 1287.22 644.16 C 1285.22 646.86, 1284.54 648.39, 1283.06 651.31 C 1281.58 654.23, 1281.21 655.81, 1279.83 658.76 C 1278.45 661.72, 1277.75 663.28, 1276.15 666.08 C 1274.55 668.89, 1273.74 670.38, 1271.83 672.79 C 1269.92 675.21, 1269.03 676.42, 1266.61 678.15 C 1264.19 679.89, 1262.90 680.73, 1259.72 681.49 C 1256.54 682.25, 1254.79 682.49, 1250.70 681.95 C 1246.61 681.40, 1244.20 680.87, 1239.29 678.77 C 1234.37 676.68, 1231.71 675.26, 1226.12 671.47 C 1220.52 667.67, 1217.27 665.30, 1211.31 659.78 C 1205.35 654.27, 1202.06 650.96, 1196.32 643.90 C 1190.59 636.83, 1187.45 632.29, 1182.64 624.46 C 1177.82 616.63, 1175.48 612.26, 1172.25 604.77 C 1169.01 597.27, 1167.74 593.06, 1166.46 586.96 C 1165.19 580.87, 1165.33 578.01, 1165.88 574.28 C 1166.44 570.56, 1167.34 569.60, 1169.23 568.35 C 1171.12 567.09, 1172.22 566.95, 1175.35 568.01 C 1178.48 569.08, 1180.80 570.21, 1184.87 573.67 C 1188.95 577.12, 1191.58 579.72, 1195.74 585.30 C 1199.90 590.87, 1202.32 594.49, 1205.66 601.54 C 1209.01 608.59, 1210.68 612.80, 1212.48 620.55 C 1214.28 628.29, 1214.57 632.56, 1214.66 640.27 C 1214.74 647.99, 1214.44 652.09, 1212.90 659.12 C 1211.36 666.16, 1209.95 669.75, 1206.96 675.42 C 1203.97 681.10, 1201.87 683.59, 1197.94 687.51 C 1194.01 691.44, 1191.43 692.93, 1187.32 695.05 C 1183.21 697.16, 1181.05 697.63, 1177.39 698.09 C 1173.72 698.55, 1171.95 698.39, 1169.01 697.34 C 1166.06 696.30, 1164.86 695.14, 1162.67 692.87 C 1160.47 690.59, 1159.79 688.59, 1158.03 685.98 C 1156.26 683.37, 1155.63 681.65, 1153.85 679.83 C 1152.07 678.02, 1151.00 677.18, 1149.12 676.90 C 1147.24 676.63, 1146.45 676.97, 1144.46 678.45 C 1142.47 679.94, 1141.80 681.78, 1139.16 684.33 C 1136.52 686.88, 1134.84 688.77, 1131.27 691.20 C 1127.71 693.62, 1125.52 694.98, 1121.33 696.45 C 1117.15 697.92, 1114.54 698.47, 1110.35 698.55 C 1106.16 698.62, 1103.73 698.11, 1100.37 696.84 C 1097.01 695.56, 1095.49 694.54, 1093.54 692.17 C 1091.58 689.80, 1090.70 688.24, 1090.61 684.98 C 1090.52 681.72, 1091.01 679.53, 1093.10 675.88 C 1095.19 672.22, 1097.32 670.01, 1101.05 666.69 C 1104.78 663.38, 1107.44 661.29, 1111.76 659.29 C 1116.07 657.28, 1118.82 656.98, 1122.62 656.68 C 1126.42 656.37, 1128.06 657.20, 1130.74 657.76 C 1133.41 658.32, 1134.74 659.48, 1135.98 659.46 C 1137.22 659.45, 1137.77 658.82, 1136.93 657.69" style="stroke: black; fill: black;"/><path d="M 1402.22,660.15 C 1403.07 660.48, 1403.67 660.45, 1405.94 660.17 C 1408.22 659.90, 1409.77 659.26, 1413.59 658.78 C 1417.41 658.31, 1420.21 657.93, 1425.05 657.80 C 1429.89 657.68, 1432.89 657.54, 1437.80 658.15 C 1442.71 658.76, 1445.14 659.37, 1449.59 660.86 C 1454.03 662.35, 1456.16 663.36, 1460.03 665.60 C 1463.90 667.83, 1465.55 669.31, 1468.94 672.03 C 1472.32 674.75, 1473.88 676.45, 1476.95 679.21 C 1480.01 681.96, 1481.65 683.39, 1484.27 685.79 C 1486.89 688.20, 1487.91 689.51, 1490.05 691.24 C 1492.19 692.97, 1493.25 693.56, 1494.98 694.43 C 1496.71 695.30, 1497.52 695.43, 1498.69 695.60 C 1499.87 695.77, 1500.38 695.56, 1500.85 695.26 C 1501.32 694.97, 1501.31 694.54, 1501.06 694.11 C 1500.81 693.68, 1500.44 693.68, 1499.62 693.11 C 1498.79 692.53, 1498.31 692.27, 1496.92 691.24 C 1495.53 690.22, 1494.72 689.61, 1492.67 687.98 C 1490.61 686.34, 1489.37 685.30, 1486.64 683.06 C 1483.92 680.82, 1482.22 679.46, 1479.04 676.80 C 1475.86 674.13, 1474.28 672.45, 1470.75 669.73 C 1467.22 667.01, 1465.47 665.48, 1461.41 663.18 C 1457.35 660.89, 1455.11 659.84, 1450.46 658.26 C 1445.82 656.68, 1443.28 656.05, 1438.20 655.29 C 1433.11 654.52, 1430.05 654.55, 1425.05 654.43 C 1420.04 654.32, 1417.16 654.35, 1413.16 654.71 C 1409.16 655.07, 1407.34 655.46, 1405.05 656.22 C 1402.75 656.99, 1402.26 657.76, 1401.70 658.54 C 1401.13 659.33, 1401.37 659.83, 1402.22 660.15" style="stroke: black; fill: black;"/><path d="M 1464.93,632.72 C 1465.67 631.79, 1465.95 630.00, 1466.43 628.02 C 1466.91 626.04, 1467.10 624.66, 1467.33 622.82 C 1467.57 620.97, 1467.89 619.75, 1467.59 618.79 C 1467.28 617.84, 1466.73 617.50, 1465.80 618.04 C 1464.86 618.58, 1463.79 619.63, 1462.91 621.50 C 1462.03 623.37, 1461.46 625.16, 1461.41 627.40 C 1461.37 629.63, 1461.98 631.60, 1462.69 632.67 C 1463.39 633.73, 1464.18 633.65, 1464.93 632.72" style="stroke: black; fill: black;"/><path d="M 1511.40,672.49 C 1511.92 673.75, 1513.09 675.27, 1515.28 677.21 C 1517.48 679.15, 1519.31 680.25, 1522.38 682.18 C 1525.45 684.10, 1527.40 685.50, 1530.64 686.83 C 1533.89 688.16, 1535.70 688.67, 1538.61 688.84 C 1541.52 689.01, 1542.76 688.59, 1545.19 687.66 C 1547.61 686.74, 1548.71 685.97, 1550.72 684.20 C 1552.74 682.43, 1553.77 681.05, 1555.26 678.83 C 1556.76 676.60, 1557.14 674.76, 1558.20 673.07 C 1559.27 671.38, 1559.30 670.46, 1560.58 670.37 C 1561.85 670.28, 1562.43 671.06, 1564.57 672.62 C 1566.72 674.18, 1568.31 675.59, 1571.31 678.18 C 1574.31 680.77, 1576.08 682.80, 1579.56 685.55 C 1583.04 688.30, 1585.06 689.75, 1588.72 691.91 C 1592.37 694.08, 1594.34 695.04, 1597.82 696.40 C 1601.30 697.75, 1603.24 698.27, 1606.13 698.69 C 1609.02 699.11, 1610.32 698.83, 1612.27 698.48 C 1614.23 698.12, 1615.24 697.50, 1615.91 696.90 C 1616.59 696.30, 1616.39 695.79, 1615.63 695.47 C 1614.88 695.15, 1613.91 695.49, 1612.14 695.29 C 1610.37 695.09, 1609.41 694.93, 1606.79 694.48 C 1604.17 694.02, 1602.32 694.11, 1599.04 693.02 C 1595.77 691.93, 1593.88 691.07, 1590.43 689.03 C 1586.97 686.99, 1585.08 685.57, 1581.79 682.81 C 1578.49 680.05, 1576.91 678.02, 1573.95 675.24 C 1570.99 672.47, 1569.71 670.58, 1566.98 668.94 C 1564.25 667.31, 1562.72 666.82, 1560.28 667.06 C 1557.84 667.31, 1556.65 668.38, 1554.77 670.16 C 1552.89 671.93, 1552.33 673.75, 1550.90 675.93 C 1549.47 678.12, 1549.04 679.43, 1547.62 681.08 C 1546.20 682.72, 1545.52 683.43, 1543.79 684.16 C 1542.06 684.88, 1541.25 684.97, 1538.97 684.69 C 1536.69 684.40, 1535.23 683.98, 1532.39 682.73 C 1529.54 681.47, 1527.63 680.23, 1524.74 678.41 C 1521.85 676.59, 1520.36 675.13, 1517.95 673.63 C 1515.54 672.13, 1514.00 671.13, 1512.69 670.91 C 1511.37 670.68, 1510.88 671.23, 1511.40 672.49" style="stroke: black; fill: black;"/><path d="M 1657.22,661.88 C 1656.45 660.68, 1655.16 659.09, 1652.32 657.57 C 1649.48 656.04, 1647.20 655.15, 1643.01 654.27 C 1638.81 653.38, 1635.68 652.92, 1631.37 653.16 C 1627.05 653.40, 1624.33 653.71, 1621.43 655.44 C 1618.52 657.18, 1617.22 659.03, 1616.84 661.84 C 1616.45 664.64, 1617.12 666.22, 1619.52 669.47 C 1621.93 672.72, 1624.19 674.45, 1628.87 678.07 C 1633.55 681.70, 1637.07 683.89, 1642.93 687.60 C 1648.80 691.32, 1652.56 693.22, 1658.20 696.65 C 1663.84 700.08, 1666.93 701.89, 1671.14 704.76 C 1675.35 707.62, 1677.23 709.11, 1679.25 710.95 C 1681.27 712.80, 1681.72 712.98, 1681.23 713.98 C 1680.75 714.98, 1679.71 715.18, 1676.82 715.96 C 1673.93 716.74, 1671.53 717.34, 1666.76 717.88 C 1661.99 718.42, 1658.61 718.68, 1652.97 718.67 C 1647.33 718.65, 1643.79 718.53, 1638.56 717.81 C 1633.34 717.10, 1630.63 716.36, 1626.85 715.07 C 1623.08 713.78, 1621.81 712.60, 1619.69 711.37 C 1617.57 710.13, 1617.13 709.23, 1616.26 708.91 C 1615.39 708.59, 1615.00 708.77, 1615.35 709.75 C 1615.70 710.74, 1615.89 712.21, 1618.00 713.85 C 1620.10 715.50, 1621.84 716.63, 1625.88 717.96 C 1629.92 719.30, 1632.79 719.81, 1638.20 720.53 C 1643.61 721.24, 1647.16 721.40, 1652.93 721.53 C 1658.71 721.65, 1662.08 721.59, 1667.09 721.16 C 1672.10 720.72, 1674.76 720.64, 1677.97 719.35 C 1681.18 718.07, 1682.47 716.82, 1683.16 714.71 C 1683.85 712.61, 1683.55 711.25, 1681.42 708.84 C 1679.29 706.43, 1676.93 705.48, 1672.52 702.65 C 1668.11 699.83, 1665.03 698.13, 1659.37 694.72 C 1653.71 691.31, 1649.98 689.36, 1644.22 685.61 C 1638.46 681.85, 1635.00 679.55, 1630.56 675.94 C 1626.13 672.32, 1624.21 670.29, 1622.04 667.55 C 1619.87 664.81, 1619.50 663.97, 1619.73 662.22 C 1619.96 660.47, 1620.83 659.84, 1623.19 658.80 C 1625.56 657.75, 1627.75 657.16, 1631.55 657.02 C 1635.35 656.87, 1638.38 657.22, 1642.20 658.05 C 1646.01 658.89, 1647.85 660.08, 1650.64 661.18 C 1653.43 662.27, 1654.82 663.41, 1656.14 663.55 C 1657.45 663.69, 1657.98 663.08, 1657.22 661.88" style="stroke: black; fill: black;"/><path d="M 1689.80,592.07 C 1690.58 593.11, 1692.36 593.33, 1694.61 595.58 C 1696.86 597.83, 1698.32 599.11, 1701.05 603.34 C 1703.79 607.57, 1705.72 610.58, 1708.31 616.73 C 1710.89 622.89, 1712.01 626.90, 1713.97 634.12 C 1715.94 641.34, 1716.49 645.68, 1718.14 652.84 C 1719.79 659.99, 1720.62 663.55, 1722.22 669.90 C 1723.81 676.25, 1724.60 679.32, 1726.12 684.58 C 1727.63 689.83, 1728.23 692.30, 1729.79 696.18 C 1731.35 700.05, 1731.84 701.80, 1733.93 703.97 C 1736.02 706.13, 1737.41 706.78, 1740.24 707.00 C 1743.08 707.22, 1744.72 706.78, 1748.10 705.06 C 1751.49 703.34, 1753.24 701.77, 1757.19 698.41 C 1761.15 695.04, 1763.60 692.60, 1767.88 688.23 C 1772.15 683.85, 1774.50 681.23, 1778.57 676.53 C 1782.65 671.83, 1784.81 669.03, 1788.25 664.73 C 1791.70 660.44, 1793.49 658.45, 1795.79 655.05 C 1798.10 651.65, 1798.97 650.26, 1799.78 647.73 C 1800.58 645.19, 1800.60 643.91, 1799.82 642.36 C 1799.04 640.82, 1796.86 640.19, 1795.89 640.01 C 1794.93 639.82, 1794.63 640.78, 1794.99 641.44 C 1795.35 642.10, 1797.35 642.26, 1797.69 643.29 C 1798.04 644.32, 1797.59 644.57, 1796.71 646.60 C 1795.83 648.63, 1795.40 650.11, 1793.32 653.43 C 1791.23 656.75, 1789.60 658.88, 1786.29 663.19 C 1782.98 667.49, 1780.81 670.31, 1776.77 674.96 C 1772.72 679.60, 1770.35 682.18, 1766.05 686.41 C 1761.75 690.63, 1759.18 692.97, 1755.27 696.07 C 1751.36 699.18, 1749.48 700.40, 1746.51 701.94 C 1743.54 703.48, 1742.46 703.81, 1740.42 703.77 C 1738.37 703.73, 1737.90 703.46, 1736.29 701.73 C 1734.68 699.99, 1733.96 698.65, 1732.36 695.08 C 1730.76 691.52, 1729.94 689.05, 1728.29 683.92 C 1726.65 678.78, 1725.81 675.71, 1724.15 669.40 C 1722.49 663.10, 1721.65 659.57, 1720.01 652.41 C 1718.36 645.24, 1717.84 640.91, 1715.93 633.59 C 1714.03 626.28, 1712.97 622.21, 1710.48 615.85 C 1708.00 609.50, 1706.21 606.37, 1703.50 601.82 C 1700.80 597.27, 1699.50 595.39, 1696.95 593.11 C 1694.40 590.82, 1692.18 590.61, 1690.75 590.40 C 1689.32 590.19, 1689.03 591.04, 1689.80 592.07" style="stroke: black; fill: black;"/><path d="M 1743.89,683.26 C 1744.50 684.86, 1745.71 686.79, 1748.48 690.08 C 1751.25 693.37, 1753.30 695.72, 1757.74 699.71 C 1762.18 703.71, 1765.22 706.38, 1770.69 710.07 C 1776.17 713.76, 1779.46 715.71, 1785.13 718.15 C 1790.79 720.59, 1793.65 721.25, 1799.01 722.27 C 1804.37 723.28, 1807.05 723.41, 1811.93 723.23 C 1816.81 723.05, 1819.17 722.64, 1823.40 721.37 C 1827.64 720.09, 1829.65 718.98, 1833.09 716.86 C 1836.54 714.75, 1838.23 713.20, 1840.63 710.80 C 1843.03 708.39, 1843.91 706.69, 1845.09 704.84 C 1846.26 702.98, 1846.10 702.05, 1846.48 701.52 C 1846.87 701.00, 1846.55 701.28, 1847.02 702.22 C 1847.48 703.16, 1847.55 704.29, 1848.82 706.22 C 1850.10 708.15, 1851.21 709.50, 1853.38 711.89 C 1855.55 714.27, 1857.08 715.65, 1859.67 718.15 C 1862.25 720.65, 1863.73 722.45, 1866.30 724.40 C 1868.88 726.35, 1871.05 727.52, 1872.54 727.91 C 1874.03 728.30, 1874.46 727.66, 1873.76 726.34 C 1873.06 725.03, 1871.22 723.58, 1869.05 721.31 C 1866.88 719.05, 1865.25 717.57, 1862.91 715.00 C 1860.56 712.43, 1859.32 710.87, 1857.31 708.46 C 1855.30 706.05, 1854.54 704.66, 1852.86 702.95 C 1851.18 701.24, 1850.41 700.58, 1848.91 699.91 C 1847.41 699.24, 1846.77 699.08, 1845.37 699.59 C 1843.97 700.09, 1843.42 700.73, 1841.90 702.44 C 1840.39 704.14, 1839.91 705.76, 1837.79 708.10 C 1835.68 710.44, 1834.38 712.04, 1831.33 714.15 C 1828.28 716.26, 1826.45 717.34, 1822.54 718.65 C 1818.64 719.96, 1816.43 720.43, 1811.81 720.70 C 1807.19 720.96, 1804.59 720.91, 1799.43 719.99 C 1794.28 719.07, 1791.50 718.46, 1786.02 716.08 C 1780.54 713.70, 1777.35 711.75, 1772.05 708.08 C 1766.75 704.42, 1763.81 701.74, 1759.52 697.77 C 1755.24 693.79, 1753.46 691.34, 1750.64 688.20 C 1747.83 685.07, 1746.79 683.08, 1745.44 682.09 C 1744.09 681.10, 1743.29 681.66, 1743.89 683.26" style="stroke: black; fill: black;"/><path d="M 1828.41,638.90 C 1828.68 639.62, 1828.96 640.29, 1829.87 640.58 C 1830.78 640.87, 1832.19 641.03, 1832.96 640.35 C 1833.73 639.68, 1834.16 638.17, 1833.71 637.21 C 1833.26 636.24, 1831.76 635.58, 1830.72 635.53 C 1829.68 635.49, 1828.98 636.33, 1828.51 637.00 C 1828.05 637.68, 1828.14 638.19, 1828.41 638.90" style="stroke: black; fill: black;"/></svg>