<svg xmlns="http://www.w3.org/2000/svg" version="1.1" xmlns:xlink="http://www.w3.org/1999/xlink" width="173" height="173"><svg xmlns="http://www.w3.org/2000/svg" version="1.1" xmlns:xlink="http://www.w3.org/1999/xlink" width="173" height="173"><svg width="173" height="173" viewBox="0 0 173 173" fill="none" xmlns="http://www.w3.org/2000/svg">
<path d="M102.269 44.8545C102.269 48.818 105.482 52.0312 109.445 52.0312C113.409 52.0312 116.622 48.818 116.622 44.8545C116.622 40.8909 113.409 37.6778 109.445 37.6778C105.482 37.6778 102.269 40.8909 102.269 44.8545Z" fill="black"></path>
<path d="M127.387 44.8545C127.387 48.818 130.6 52.0312 134.564 52.0312C138.527 52.0312 141.74 48.818 141.74 44.8545C141.74 40.8909 138.527 37.6778 134.564 37.6778C130.6 37.6778 127.387 40.8909 127.387 44.8545Z" fill="black"></path>
<path d="M102.269 127.386C102.269 131.35 105.482 134.563 109.445 134.563C113.409 134.563 116.622 131.35 116.622 127.386C116.622 123.423 113.409 120.21 109.445 120.21C105.482 120.21 102.269 123.423 102.269 127.386Z" fill="black"></path>
<path d="M104.063 23.3244C104.063 26.2971 106.473 28.7069 109.445 28.7069C112.418 28.7069 114.828 26.2971 114.828 23.3244C114.828 20.3517 112.418 17.9419 109.445 17.9419C106.473 17.9419 104.063 20.3517 104.063 23.3244Z" fill="black"></path>
<path d="M148.917 71.7671C148.917 74.7398 151.327 77.1496 154.3 77.1496C157.272 77.1496 159.682 74.7398 159.682 71.7671C159.682 68.7944 157.272 66.3845 154.3 66.3845C151.327 66.3845 148.917 68.7944 148.917 71.7671Z" fill="black"></path>
<path d="M148.917 100.474C148.917 103.447 151.327 105.856 154.3 105.856C157.272 105.856 159.682 103.447 159.682 100.474C159.682 97.5012 157.272 95.0913 154.3 95.0913C151.327 95.0913 148.917 97.5012 148.917 100.474Z" fill="black"></path>
<path d="M104.063 148.917C104.063 151.889 106.473 154.299 109.445 154.299C112.418 154.299 114.828 151.889 114.828 148.917C114.828 145.944 112.418 143.534 109.445 143.534C106.473 143.534 104.063 145.944 104.063 148.917Z" fill="black"></path>
<path d="M98.6802 71.7671C98.6802 77.7124 103.5 82.5321 109.445 82.5321C115.391 82.5321 120.21 77.7124 120.21 71.7671C120.21 65.8217 115.391 61.002 109.445 61.002C103.5 61.002 98.6802 65.8217 98.6802 71.7671Z" fill="black"></path>
<path d="M98.6802 100.474C98.6802 106.419 103.5 111.239 109.445 111.239C115.391 111.239 120.21 106.419 120.21 100.474C120.21 94.5285 115.391 89.7088 109.445 89.7088C103.5 89.7088 98.6802 94.5285 98.6802 100.474Z" fill="black"></path>
<path d="M127.387 71.7671C127.387 75.7306 130.6 78.9438 134.564 78.9438C138.527 78.9438 141.74 75.7306 141.74 71.7671C141.74 67.8035 138.527 64.5904 134.564 64.5904C130.6 64.5904 127.387 67.8035 127.387 71.7671Z" fill="black"></path>
<path d="M127.387 100.474C127.387 104.437 130.6 107.651 134.564 107.651C138.527 107.651 141.74 104.437 141.74 100.474C141.74 96.5103 138.527 93.2972 134.564 93.2972C130.6 93.2972 127.387 96.5103 127.387 100.474Z" fill="black"></path>
<path d="M127.387 127.386C127.387 131.35 130.6 134.563 134.564 134.563C138.527 134.563 141.74 131.35 141.74 127.386C141.74 123.423 138.527 120.21 134.564 120.21C130.6 120.21 127.387 123.423 127.387 127.386Z" fill="black"></path>
<path d="M86.121 14.3535C89.0936 14.3535 91.5035 16.7634 91.5035 19.736V152.505C91.5035 155.478 89.0936 157.887 86.121 157.887C46.4852 157.887 14.354 125.756 14.354 86.1205C14.354 46.4847 46.4852 14.3535 86.121 14.3535Z" fill="black"></path>
</svg></svg><style>@media (prefers-color-scheme: light) { :root { filter: none; } }
@media (prefers-color-scheme: dark) { :root { filter: none; } }
</style></svg>